<?xml version="1.0" encoding="UTF-8" standalone="no"?>
<svg
   xmlns:dc="http://purl.org/dc/elements/1.1/"
   xmlns:cc="http://creativecommons.org/ns#"
   xmlns:rdf="http://www.w3.org/1999/02/22-rdf-syntax-ns#"
   xmlns:svg="http://www.w3.org/2000/svg"
   xmlns="http://www.w3.org/2000/svg"
   xmlns:xlink="http://www.w3.org/1999/xlink"
   xmlns:sodipodi="http://sodipodi.sourceforge.net/DTD/sodipodi-0.dtd"
   xmlns:inkscape="http://www.inkscape.org/namespaces/inkscape"
   width="210mm"
   height="297mm"
   viewBox="0 0 210 297"
   version="1.1"
   id="svg10165"
   inkscape:version="1.0 (4035a4fb49, 2020-05-01)"
   sodipodi:docname="aula_4.2.svg">
  <defs
     id="defs10159">
    <pattern
       patternTransform="matrix(7.0710679,7.0710679,-7.0710679,7.0710679,-664.811,726.63141)"
       id="pattern11133"
       xlink:href="#Strips1_1"
       inkscape:collect="always" />
    <pattern
       inkscape:collect="always"
       patternUnits="userSpaceOnUse"
       width="2"
       height="1"
       patternTransform="translate(0,0) scale(10,10)"
       id="Strips1_1"
       inkscape:stockid="Stripes 1:1"
       inkscape:isstock="true">
      <rect
         style="fill:#553388;stroke:none"
         x="0"
         y="-0.5"
         width="1"
         height="2"
         id="rect4644" />
    </pattern>
    <inkscape:path-effect
       effect="fillet_chamfer"
       id="path-effect5646"
       is_visible="true"
       lpeversion="1"
       satellites_param="F,0,0,1,0,0,0,1 @ F,0,0,1,0,1.5875,0,1 @ F,0,0,1,0,1.5875,0,1 @ F,0,0,1,0,1.5875,0,1 @ F,0,0,1,0,0,0,1"
       unit="px"
       method="auto"
       mode="F"
       radius="6"
       chamfer_steps="1"
       flexible="false"
       use_knot_distance="true"
       apply_no_radius="true"
       apply_with_radius="true"
       only_selected="false"
       hide_knots="false" />
    <inkscape:path-effect
       effect="fillet_chamfer"
       id="path-effect5648"
       is_visible="true"
       lpeversion="1"
       satellites_param="F,0,0,1,0,1.5875,0,1 @ F,0,0,1,0,1.5875,0,1 @ F,0,0,1,0,1.5875,0,1 @ F,0,0,1,0,1.5875,0,1 @ F,0,0,1,0,1.5875,0,1 @ F,0,0,1,0,1.5875,0,1"
       unit="px"
       method="auto"
       mode="F"
       radius="6"
       chamfer_steps="1"
       flexible="false"
       use_knot_distance="true"
       apply_no_radius="true"
       apply_with_radius="true"
       only_selected="false"
       hide_knots="false" />
    <inkscape:path-effect
       effect="fillet_chamfer"
       id="path-effect5650"
       is_visible="true"
       lpeversion="1"
       satellites_param="F,0,0,1,0,0,0,1 @ F,0,0,1,0,1.5875,0,1 @ F,0,0,1,0,1.5875,0,1 @ F,0,0,1,0,1.5875,0,1 @ F,0,0,1,0,0,0,1"
       unit="px"
       method="auto"
       mode="F"
       radius="6"
       chamfer_steps="1"
       flexible="false"
       use_knot_distance="true"
       apply_no_radius="true"
       apply_with_radius="true"
       only_selected="false"
       hide_knots="false" />
    <inkscape:path-effect
       hide_knots="false"
       only_selected="false"
       apply_with_radius="true"
       apply_no_radius="true"
       use_knot_distance="true"
       flexible="false"
       chamfer_steps="1"
       radius="6"
       mode="F"
       method="auto"
       unit="px"
       satellites_param="F,0,0,1,0,0,0,1 @ F,0,0,1,0,1.5875,0,1 @ F,0,0,1,0,1.5875,0,1 @ F,0,0,1,0,1.5875,0,1 @ F,0,0,1,0,0,0,1"
       lpeversion="1"
       is_visible="true"
       id="path-effect5910"
       effect="fillet_chamfer" />
    <inkscape:path-effect
       hide_knots="false"
       only_selected="false"
       apply_with_radius="true"
       apply_no_radius="true"
       use_knot_distance="true"
       flexible="false"
       chamfer_steps="1"
       radius="6"
       mode="F"
       method="auto"
       unit="px"
       satellites_param="F,0,0,1,0,1.5875,0,1 @ F,0,0,1,0,1.5875,0,1 @ F,0,0,1,0,1.5875,0,1 @ F,0,0,1,0,1.5875,0,1 @ F,0,0,1,0,1.5875,0,1 @ F,0,0,1,0,1.5875,0,1"
       lpeversion="1"
       is_visible="true"
       id="path-effect5914"
       effect="fillet_chamfer" />
    <inkscape:path-effect
       hide_knots="false"
       only_selected="false"
       apply_with_radius="true"
       apply_no_radius="true"
       use_knot_distance="true"
       flexible="false"
       chamfer_steps="1"
       radius="6"
       mode="F"
       method="auto"
       unit="px"
       satellites_param="F,0,0,1,0,0,0,1 @ F,0,0,1,0,1.5875,0,1 @ F,0,0,1,0,1.5875,0,1 @ F,0,0,1,0,1.5875,0,1 @ F,0,0,1,0,0,0,1"
       lpeversion="1"
       is_visible="true"
       id="path-effect5922"
       effect="fillet_chamfer" />
  </defs>
  <sodipodi:namedview
     inkscape:window-maximized="1"
     inkscape:window-y="-8"
     inkscape:window-x="-8"
     inkscape:window-height="1017"
     inkscape:window-width="1920"
     showborder="true"
     showgrid="false"
     inkscape:document-rotation="0"
     inkscape:current-layer="layer1"
     inkscape:document-units="mm"
     inkscape:cy="2953.9716"
     inkscape:cx="-2460.1467"
     inkscape:zoom="0.49497475"
     inkscape:pageshadow="2"
     inkscape:pageopacity="0.0"
     borderopacity="1.0"
     bordercolor="#666666"
     pagecolor="#ffffff"
     id="base" />
  <metadata
     id="metadata10162">
    <rdf:RDF>
      <cc:Work
         rdf:about="">
        <dc:format>image/svg+xml</dc:format>
        <dc:type
           rdf:resource="http://purl.org/dc/dcmitype/StillImage" />
        <dc:title></dc:title>
      </cc:Work>
    </rdf:RDF>
  </metadata>
  <g
     id="layer1"
     inkscape:groupmode="layer"
     inkscape:label="Layer 1">
    <rect
       style="fill:#edc151;fill-opacity:1;stroke-width:0.354999;stroke-miterlimit:4.41667;stroke-dasharray:none"
       id="rect11271"
       width="184.41597"
       height="243.7498"
       x="-616.85803"
       y="697.03894"
       ry="0" />
    <rect
       y="-0.24943796"
       x="-107.4492"
       height="32.927589"
       width="32.927589"
       id="rect2202"
       style="display:inline;fill:#553388;fill-opacity:1;stroke:none;stroke-width:2" />
    <rect
       style="display:inline;fill:#edc151;fill-opacity:1;stroke:none;stroke-width:2"
       id="rect2204"
       width="32.927589"
       height="32.927589"
       x="-107.4492"
       y="32.678089" />
    <rect
       y="82.069473"
       x="-107.4492"
       height="16.463797"
       width="16.463797"
       id="rect2206"
       style="display:inline;fill:#f7e948;fill-opacity:1;stroke:none;stroke-width:2" />
    <rect
       style="display:inline;fill:#f79d48;fill-opacity:1;stroke:none;stroke-width:2"
       id="rect2208"
       width="16.463797"
       height="16.463797"
       x="-90.984901"
       y="82.069473" />
    <rect
       style="display:inline;fill:#8e2f94;fill-opacity:1;stroke:none;stroke-width:2"
       id="rect2210"
       width="16.463797"
       height="16.463797"
       x="-107.4492"
       y="65.605721" />
    <rect
       y="65.605721"
       x="-90.984901"
       height="16.463797"
       width="16.463797"
       id="rect2212"
       style="display:inline;fill:#2f3d94;fill-opacity:1;stroke:none;stroke-width:2" />
    <g
       id="g6105"
       transform="translate(-1928.8347,-1615.5403)"
       style="display:inline">
      <path
         inkscape:original-d="m 1153.8266,1713.9577 v 22.563 l -19.5434,11.2815 -19.5435,-11.2815 v -22.563"
         inkscape:path-effect="#path-effect5646"
         id="path5608"
         style="fill:none;stroke:#edc151;stroke-width:3.5;stroke-linecap:square;stroke-linejoin:round;stroke-miterlimit:4;stroke-dasharray:none;stroke-opacity:1"
         inkscape:transform-center-x="9.6717903e-06"
         inkscape:transform-center-y="-2.5028382e-06"
         d="m 1153.8266,1713.9577 v 20.9755 a 2.7494007,2.7494007 120.00207 0 1 -1.3749,2.3812 l -16.7936,9.6941 a 2.7500977,2.7500977 179.99994 0 1 -2.7498,10e-5 l -16.7937,-9.6943 a 2.7493937,2.7493937 59.997862 0 1 -1.3749,-2.3811 v -20.9755"
         sodipodi:nodetypes="ccccc" />
      <path
         inkscape:original-d="m 1153.8266,1725.3391 -19.5434,11.2815 -19.5435,-11.2815 v -22.5631 l 19.5435,-11.2815 19.5434,11.2815 z"
         inkscape:path-effect="#path-effect5648"
         d="m 1152.4517,1726.1328 -16.7936,9.6941 a 2.7500977,2.7500977 179.99994 0 1 -2.7498,10e-5 l -16.7937,-9.6943 a 2.7493937,2.7493937 59.997862 0 1 -1.3749,-2.3811 v -19.3881 a 2.7493937,2.7493937 120.00214 0 1 1.3749,-2.3811 l 16.7937,-9.6943 a 2.7500977,2.7500977 6.3468053e-5 0 1 2.7498,10e-5 l 16.7936,9.6941 a 2.7494007,2.7494007 59.997925 0 1 1.3749,2.3812 v 19.3881 a 2.7494007,2.7494007 120.00207 0 1 -1.3749,2.3812 z"
         inkscape:transform-center-y="-2.5028382e-06"
         inkscape:transform-center-x="9.6717903e-06"
         style="fill:none;stroke:#edc151;stroke-width:3.5;stroke-linecap:square;stroke-linejoin:round;stroke-miterlimit:4;stroke-dasharray:none;stroke-opacity:1"
         id="path5610" />
      <path
         id="path5612"
         style="fill:none;stroke:#edc151;stroke-width:3.5;stroke-linecap:round;stroke-linejoin:round;stroke-miterlimit:4;stroke-dasharray:none;stroke-opacity:1"
         inkscape:transform-center-x="4.5623422e-06"
         d="m 1124.6124,1753.3831 v -23.5442 l 9.6708,-5.588 9.6707,5.588 v 23.5442"
         sodipodi:nodetypes="ccccc" />
      <path
         style="fill:none;stroke:#edc151;stroke-width:3.5;stroke-linecap:round;stroke-linejoin:miter;stroke-miterlimit:4;stroke-dasharray:none;stroke-opacity:1"
         d="m 1134.2832,1736.5858 v 41.2312"
         id="path5614"
         sodipodi:nodetypes="cc" />
      <path
         inkscape:original-d="m 1153.8266,1725.121 v 22.5631 l -19.5434,11.2815 -19.5435,-11.2815 v -22.5631"
         inkscape:path-effect="#path-effect5650"
         sodipodi:nodetypes="ccccc"
         d="m 1153.8266,1725.121 v 20.9756 a 2.7494007,2.7494007 120.00207 0 1 -1.3749,2.3812 l -16.7936,9.6941 a 2.7500977,2.7500977 179.99994 0 1 -2.7498,10e-5 l -16.7937,-9.6943 a 2.7493937,2.7493937 59.997862 0 1 -1.3749,-2.3811 v -20.9756"
         inkscape:transform-center-y="-2.5028382e-06"
         inkscape:transform-center-x="9.6717903e-06"
         style="fill:none;stroke:#edc151;stroke-width:3.5;stroke-linecap:square;stroke-linejoin:round;stroke-miterlimit:4;stroke-dasharray:none;stroke-opacity:1"
         id="path5616" />
      <path
         sodipodi:nodetypes="ccccc"
         id="path5618"
         d="m 1114.7397,1675.4704 v 19.038 l 19.5435,-11.2815 19.5434,11.2815 v -19.038"
         style="fill:none;stroke:#edc151;stroke-width:3.5;stroke-linecap:round;stroke-linejoin:round;stroke-miterlimit:4;stroke-dasharray:none;stroke-opacity:1" />
      <path
         id="path5620"
         d="m 1134.2832,1664.1888 v 19.0381"
         style="fill:none;stroke:#edc151;stroke-width:3.5;stroke-linecap:round;stroke-linejoin:miter;stroke-miterlimit:4;stroke-dasharray:none;stroke-opacity:1" />
      <path
         id="path5622"
         d="m 1124.9424,1688.4848 v -9.6935"
         style="fill:none;stroke:#edc151;stroke-width:3.5;stroke-linecap:round;stroke-linejoin:miter;stroke-miterlimit:4;stroke-dasharray:none;stroke-opacity:1" />
      <path
         style="fill:none;stroke:#edc151;stroke-width:3.5;stroke-linecap:round;stroke-linejoin:miter;stroke-miterlimit:4;stroke-dasharray:none;stroke-opacity:1"
         d="m 1143.3915,1688.4848 v -9.6935"
         id="path5624" />
      <circle
         r="2.980078"
         cy="1682.4885"
         cx="1114.7397"
         id="circle5626"
         style="fill:#edc151;fill-opacity:1;stroke:none;stroke-width:1;stroke-miterlimit:4;stroke-dasharray:none;stroke-opacity:1" />
      <circle
         style="fill:#edc151;fill-opacity:1;stroke:none;stroke-width:1;stroke-miterlimit:4;stroke-dasharray:none;stroke-opacity:1"
         id="circle5628"
         cx="1134.2832"
         cy="1670.1346"
         r="2.98" />
      <circle
         r="2.98"
         cy="1682.4885"
         cx="1153.8265"
         id="circle5630"
         style="fill:#edc151;fill-opacity:1;stroke:none;stroke-width:1;stroke-miterlimit:4;stroke-dasharray:none;stroke-opacity:1" />
      <g
         style="stroke:#edc151;stroke-width:2;stroke-miterlimit:4;stroke-dasharray:none;stroke-opacity:1"
         transform="translate(1008.9975,1607.939)"
         id="g5640">
        <path
           style="fill:none;stroke:#edc151;stroke-width:2;stroke-linecap:round;stroke-linejoin:round;stroke-miterlimit:4;stroke-dasharray:none;stroke-opacity:1"
           d="m 138.90148,98.113453 h -10.69279 v 12.116007 h -5.50928"
           id="path5632" />
        <path
           id="path5634"
           d="m 130.90148,101.8726 3.89697,-0.88745 4.10303,0.93438"
           style="fill:none;stroke:#edc151;stroke-width:2;stroke-linecap:round;stroke-linejoin:round;stroke-miterlimit:4;stroke-dasharray:none;stroke-opacity:1" />
        <path
           style="fill:none;stroke:#edc151;stroke-width:2;stroke-linecap:round;stroke-linejoin:round;stroke-miterlimit:4;stroke-dasharray:none;stroke-opacity:1"
           d="m 113.01623,101.8726 3.89697,-0.88745 4.10303,0.93438"
           id="path5636" />
        <path
           style="fill:none;stroke:#edc151;stroke-width:2;stroke-linecap:round;stroke-linejoin:miter;stroke-miterlimit:4;stroke-dasharray:none;stroke-opacity:1"
           d="m 111.66983,98.113453 h 10.69279"
           id="path5638" />
      </g>
      <path
         style="fill:none;stroke:#edc151;stroke-width:2;stroke-linecap:round;stroke-linejoin:miter;stroke-miterlimit:4;stroke-dasharray:none;stroke-opacity:1"
         d="m 1131.0968,1730.3656 h 6.3727"
         id="path5642" />
      <g
         style="fill:#553388;fill-opacity:1"
         id="g5660"
         transform="translate(1093.6635,1602.1211)">
        <text
           xml:space="preserve"
           style="font-size:35.5261px;line-height:1.25;font-family:'Abril Fatface';-inkscape-font-specification:'Abril Fatface';fill:#553388;fill-opacity:1;stroke-width:0.264584"
           x="80.03447"
           y="127.72017"
           id="text5654"><tspan
             sodipodi:role="line"
             id="tspan5652"
             x="80.03447"
             y="127.72017"
             style="fill:#553388;fill-opacity:1;stroke-width:0.264584">Baking</tspan></text>
        <text
           xml:space="preserve"
           style="font-size:7.81722px;line-height:1.25;font-family:'Abril Fatface';-inkscape-font-specification:'Abril Fatface';fill:#553388;fill-opacity:1;stroke-width:0.25301"
           x="82.370384"
           y="136.55704"
           id="text5658"><tspan
             sodipodi:role="line"
             id="tspan5656"
             x="82.370384"
             y="136.55704"
             style="font-style:normal;font-variant:normal;font-weight:normal;font-stretch:normal;font-size:7.81722px;font-family:Nunito;-inkscape-font-specification:Nunito;fill:#553388;fill-opacity:1;stroke-width:0.25301">PADARIA E CONFEITARIA</tspan></text>
      </g>
      <g
         transform="translate(916.15458,1233.924)"
         id="g5711"
         style="display:inline">
        <g
           transform="translate(-54.834576)"
           id="g5709">
          <text
             id="text5664"
             y="499.4751"
             x="476.854"
             style="font-size:35.5261px;line-height:1.25;font-family:'Abril Fatface';-inkscape-font-specification:'Abril Fatface';display:inline;fill:#553388;fill-opacity:1;stroke-width:0.264583"
             xml:space="preserve"><tspan
               style="fill:#553388;fill-opacity:1;stroke-width:0.264583"
               y="499.4751"
               x="476.854"
               id="tspan5662"
               sodipodi:role="line">B</tspan></text>
          <path
             sodipodi:nodetypes="csccsc"
             d="m 501.72955,470.90227 c 4.65728,3.83057 7.62741,9.6378 7.62741,16.13874 0,5.05679 -1.7971,9.69385 -4.78747,13.30736 m -32.4472,-0.30834 c -2.84008,-3.5672 -4.53719,-8.08492 -4.53719,-12.99902 0,-6.85087 3.29848,-12.93134 8.39395,-16.73993"
             style="display:inline;fill:none;stroke:#edc151;stroke-width:1.5;stroke-miterlimit:9;stroke-dasharray:none;stroke-opacity:1"
             id="path5666" />
          <g
             transform="translate(452.2982,258.29144)"
             style="font-style:normal;font-weight:normal;font-size:5.64444px;line-height:2.1;font-family:sans-serif;letter-spacing:0.396875px;display:inline;fill:#553388;fill-opacity:1;stroke:none;stroke-width:0.264583"
             id="g5691"
             aria-label="CONFEITARIA">
            <path
               id="path5668"
               style="font-style:normal;font-variant:normal;font-weight:600;font-stretch:normal;font-size:5.64444px;font-family:Nunito;-inkscape-font-specification:'Nunito Semi-Bold';text-align:center;text-anchor:middle;fill:#553388;fill-opacity:1;stroke-width:0.264583"
               d="m 19.700777,245.01432 q -0.360221,-0.44186 -0.439593,-0.92334 -0.075,-0.48504 0.136705,-0.94892 0.216077,-0.46746 0.701687,-0.86334 0.481235,-0.39232 0.978261,-0.50622 0.501401,-0.11746 0.957011,0.0573 0.459985,0.17119 0.820207,0.61305 0.235392,0.28874 0.353946,0.62176 0.122929,0.32944 0.109237,0.66103 0.0021,0.13662 -0.10723,0.22579 -0.07875,0.0642 -0.171286,0.0668 -0.08816,-9.5e-4 -0.138096,-0.0622 -0.06063,-0.0744 -0.06082,-0.19073 -0.0137,-0.33839 -0.09511,-0.56332 -0.07347,-0.22412 -0.2518,-0.44286 -0.39232,-0.48123 -0.913362,-0.48613 -0.521042,-0.005 -1.102899,0.46946 -0.586232,0.47792 -0.686421,0.98926 -0.100189,0.51134 0.292131,0.99258 0.171194,0.20999 0.375913,0.32711 0.208285,0.1215 0.539732,0.21541 0.128204,0.0411 0.17457,0.098 0.04993,0.0613 0.02872,0.15136 -0.01683,0.0866 -0.09558,0.15075 -0.109372,0.0892 -0.242759,0.0595 -0.327548,-0.0534 -0.629846,-0.23662 -0.297924,-0.18679 -0.533316,-0.47553 z" />
            <path
               id="path5670"
               style="font-style:normal;font-variant:normal;font-weight:600;font-stretch:normal;font-size:5.64444px;font-family:Nunito;-inkscape-font-specification:'Nunito Semi-Bold';text-align:center;text-anchor:middle;fill:#553388;fill-opacity:1;stroke-width:0.264583"
               d="m 22.658626,247.90646 q -0.439871,-0.35371 -0.609743,-0.80899 -0.165473,-0.45176 -0.05492,-0.94954 0.110557,-0.49777 0.499638,-0.98163 0.392618,-0.48826 0.850673,-0.70661 0.46599,-0.21921 0.94359,-0.14661 0.481137,0.0682 0.921008,0.42192 0.444269,0.35724 0.614141,0.81253 0.173409,0.45089 0.05492,0.94953 -0.110557,0.49778 -0.499638,0.98164 -0.389081,0.48386 -0.855072,0.70307 -0.458054,0.21835 -0.939191,0.15014 -0.481137,-0.0682 -0.925406,-0.42545 z m 0.297116,-0.36949 q 0.466263,0.37494 0.980458,0.26692 0.514195,-0.10802 0.984629,-0.69305 0.470434,-0.58503 0.462045,-1.10602 -4.54e-4,-0.52186 -0.471116,-0.90033 -0.461864,-0.3714 -0.976059,-0.26338 -0.506259,0.10716 -0.976693,0.69218 -0.470435,0.58503 -0.469981,1.10689 0.0049,0.5254 0.466717,0.89679 z" />
            <path
               id="path5673"
               style="font-style:normal;font-variant:normal;font-weight:600;font-stretch:normal;font-size:5.64444px;font-family:Nunito;-inkscape-font-specification:'Nunito Semi-Bold';text-align:center;text-anchor:middle;fill:#553388;fill-opacity:1;stroke-width:0.264583"
               d="m 29.607268,247.379 q 0.111463,0.0547 0.140007,0.16308 0.0361,0.10577 -0.02113,0.22229 l -1.52019,3.09563 q -0.05722,0.11653 -0.165476,0.1577 -0.105763,0.0361 -0.217226,-0.0186 -0.131729,-0.0647 -0.1529,-0.20085 l -0.699751,-3.59469 -1.206698,2.45725 q -0.05722,0.11653 -0.165476,0.15769 -0.100697,0.0386 -0.21216,-0.0161 -0.111463,-0.0547 -0.142495,-0.15801 -0.03103,-0.10327 0.02868,-0.22487 l 1.52019,-3.09563 q 0.05723,-0.11653 0.162989,-0.15263 0.108251,-0.0412 0.219714,0.0136 0.131729,0.0647 0.152899,0.20085 l 0.697264,3.59975 1.209185,-2.46231 q 0.05722,-0.11653 0.157922,-0.15512 0.103185,-0.0436 0.214648,0.0111 z" />
            <path
               id="path5675"
               style="font-style:normal;font-variant:normal;font-weight:600;font-stretch:normal;font-size:5.64444px;font-family:Nunito;-inkscape-font-specification:'Nunito Semi-Bold';text-align:center;text-anchor:middle;fill:#553388;fill-opacity:1;stroke-width:0.264583"
               d="m 29.617049,251.61952 q -0.125374,-0.0337 -0.181181,-0.13051 -0.05434,-0.10227 -0.02065,-0.22765 l 0.890623,-3.31424 q 0.03369,-0.12537 0.123598,-0.17719 0.09682,-0.0558 0.227648,-0.0206 l 1.951476,0.52441 q 0.26165,0.0703 0.200127,0.29926 -0.06152,0.22894 -0.323174,0.15863 l -1.673472,-0.44971 -0.32373,1.20469 1.564451,0.42041 q 0.261651,0.0703 0.200128,0.29925 -0.06152,0.22895 -0.323174,0.15863 l -1.564451,-0.42041 -0.394042,1.46634 q -0.03516,0.13082 -0.131979,0.18663 -0.09137,0.0573 -0.222197,0.0221 z" />
            <path
               id="path5677"
               style="font-style:normal;font-variant:normal;font-weight:600;font-stretch:normal;font-size:5.64444px;font-family:Nunito;-inkscape-font-specification:'Nunito Semi-Bold';text-align:center;text-anchor:middle;fill:#553388;fill-opacity:1;stroke-width:0.264583"
               d="m 33.099758,252.36233 q -0.134915,-0.0122 -0.207,-0.0924 -0.06596,-0.0853 -0.05425,-0.21461 l 0.307868,-3.40098 q 0.0117,-0.12929 0.0914,-0.19576 0.08582,-0.0716 0.220739,-0.0594 l 2.068696,0.18727 q 0.129293,0.0117 0.191153,0.0796 0.06748,0.0684 0.0573,0.18088 -0.01018,0.11243 -0.08885,0.16765 -0.07255,0.0501 -0.20184,0.0384 l -1.787622,-0.16182 -0.11297,1.24796 1.675194,0.15164 q 0.129293,0.0117 0.191153,0.0796 0.06748,0.0685 0.0573,0.18088 -0.01018,0.11243 -0.08885,0.16765 -0.07306,0.0557 -0.202348,0.044 l -1.675194,-0.15164 -0.118567,1.3098 1.787623,0.16182 q 0.269829,0.0244 0.248966,0.25491 -0.01018,0.11243 -0.08885,0.16765 -0.07305,0.0557 -0.202349,0.044 z" />
            <path
               id="path5679"
               style="font-style:normal;font-variant:normal;font-weight:600;font-stretch:normal;font-size:5.64444px;font-family:Nunito;-inkscape-font-specification:'Nunito Semi-Bold';text-align:center;text-anchor:middle;fill:#553388;fill-opacity:1;stroke-width:0.264583"
               d="m 36.799306,252.54093 q -0.129714,0.005 -0.211894,-0.0704 -0.08218,-0.0757 -0.0877,-0.21109 l -0.140671,-3.44588 q -0.0053,-0.12971 0.07044,-0.21189 0.0755,-0.0878 0.205217,-0.0931 0.135354,-0.006 0.217533,0.0702 0.08218,0.0757 0.0877,0.21109 l 0.140672,3.44588 q 0.0055,0.13535 -0.07021,0.21753 -0.07009,0.082 -0.211087,0.0877 z" />
            <path
               id="path5681"
               style="font-style:normal;font-variant:normal;font-weight:600;font-stretch:normal;font-size:5.64444px;font-family:Nunito;-inkscape-font-specification:'Nunito Semi-Bold';text-align:center;text-anchor:middle;fill:#553388;fill-opacity:1;stroke-width:0.264583"
               d="m 39.645324,252.23424 q -0.128076,0.0212 -0.224521,-0.0429 -0.0918,-0.0706 -0.113022,-0.19869 l -0.527777,-3.18519 -1.113703,0.18454 q -0.267289,0.0443 -0.306964,-0.19516 -0.01938,-0.11693 0.0373,-0.18926 0.06224,-0.0733 0.190317,-0.0945 l 2.806531,-0.46504 q 0.128076,-0.0212 0.205048,0.029 0.08254,0.0493 0.101916,0.1662 0.03968,0.23945 -0.227613,0.28374 l -1.113703,0.18453 0.527778,3.18519 q 0.02122,0.12808 -0.0429,0.22453 -0.06504,0.0909 -0.198686,0.11302 z" />
            <path
               id="path5683"
               style="font-style:normal;font-variant:normal;font-weight:600;font-stretch:normal;font-size:5.64444px;font-family:Nunito;-inkscape-font-specification:'Nunito Semi-Bold';text-align:center;text-anchor:middle;fill:#553388;fill-opacity:1;stroke-width:0.264583"
               d="m 44.873611,250.27078 q 0.04982,0.0539 0.06537,0.0963 0.03693,0.10068 -0.02258,0.20067 -0.05422,0.0981 -0.154902,0.13498 -0.06889,0.0253 -0.146087,0.0115 -0.07384,-0.021 -0.132849,-0.0835 l -0.641318,-0.66659 -1.9395,0.71144 -0.05817,0.92316 q -0.0046,0.0859 -0.05262,0.15158 -0.04998,0.0604 -0.118873,0.0857 -0.105984,0.0389 -0.21604,0.001 -0.104757,-0.0397 -0.14169,-0.14041 -0.01555,-0.0424 -0.01238,-0.11571 l 0.295038,-3.81774 q 0.006,-0.0984 0.06799,-0.17525 0.06729,-0.0788 0.157379,-0.11184 0.09009,-0.033 0.187068,-0.0145 0.102281,0.0166 0.170476,0.0878 z m -2.935191,-0.10173 1.552659,-0.56953 -1.42238,-1.46829 z" />
            <path
               id="path5685"
               style="font-style:normal;font-variant:normal;font-weight:600;font-stretch:normal;font-size:5.64444px;font-family:Nunito;-inkscape-font-specification:'Nunito Semi-Bold';text-align:center;text-anchor:middle;fill:#553388;fill-opacity:1;stroke-width:0.264583"
               d="m 48.34168,248.13138 q 0.08206,0.0351 0.127125,0.10676 0.05408,0.086 0.02145,0.19319 -0.03085,0.0994 -0.12164,0.15649 -0.133799,0.0841 -0.290139,0.0157 l -1.265203,-0.59136 q -0.218059,-0.10293 -0.384359,-0.0917 -0.169306,0.006 -0.370004,0.13261 l -0.539973,0.33948 0.733033,1.16596 q 0.0721,0.11468 0.04726,0.22364 -0.02006,0.10595 -0.134746,0.17806 -0.109906,0.0691 -0.218865,0.0443 -0.108959,-0.0248 -0.18106,-0.13952 L 43.93799,246.9596 q -0.0691,-0.10991 -0.04603,-0.21109 0.02484,-0.10895 0.139525,-0.18106 l 1.189852,-0.74805 q 0.559087,-0.3515 1.006798,-0.28627 0.452488,0.0622 0.752911,0.54007 0.249352,0.39662 0.180981,0.7863 -0.07137,0.38491 -0.445047,0.71317 0.145272,-0.0447 0.299697,-0.0217 0.154425,0.0229 0.346131,0.11575 z m -2.183286,-0.69424 q 0.372725,-0.23433 0.459403,-0.48884 0.08845,-0.2623 -0.103818,-0.56812 -0.192271,-0.30583 -0.456199,-0.33325 -0.266932,-0.0322 -0.644436,0.20514 l -0.893584,0.56179 0.74505,1.18507 z" />
            <path
               id="path5687"
               style="font-style:normal;font-variant:normal;font-weight:600;font-stretch:normal;font-size:5.64444px;font-family:Nunito;-inkscape-font-specification:'Nunito Semi-Bold';text-align:center;text-anchor:middle;fill:#553388;fill-opacity:1;stroke-width:0.264583"
               d="m 49.66902,247.4901 q -0.09867,0.0844 -0.210087,0.0756 -0.111414,-0.009 -0.199447,-0.11167 l -2.241174,-2.62126 q -0.08436,-0.0987 -0.07566,-0.21009 0.005,-0.11571 0.103714,-0.20007 0.102963,-0.088 0.214377,-0.0793 0.111414,0.009 0.199447,0.11168 l 2.241174,2.62126 q 0.08803,0.10297 0.07932,0.21438 -0.0044,0.10775 -0.111673,0.19945 z" />
            <path
               id="path5689"
               style="font-style:normal;font-variant:normal;font-weight:600;font-stretch:normal;font-size:5.64444px;font-family:Nunito;-inkscape-font-specification:'Nunito Semi-Bold';text-align:center;text-anchor:middle;fill:#553388;fill-opacity:1;stroke-width:0.264583"
               d="m 52.922268,243.53194 q 0.06972,0.0229 0.103916,0.0524 0.08121,0.07 0.07779,0.18636 2.65e-4,0.11204 -0.06978,0.19325 -0.04793,0.0556 -0.122085,0.0811 -0.07475,0.0175 -0.156704,-0.008 l -0.884443,-0.27089 -1.3493,1.56435 0.39781,0.83509 q 0.03772,0.0772 0.02767,0.15804 -0.01432,0.0771 -0.06225,0.13266 -0.07373,0.0855 -0.188282,0.10594 -0.110864,0.0162 -0.192073,-0.0539 -0.03419,-0.0295 -0.06705,-0.0951 l -1.597543,-3.47996 q -0.04258,-0.0889 -0.02575,-0.1862 0.02052,-0.10156 0.08319,-0.17422 0.06267,-0.0727 0.156439,-0.1036 0.09745,-0.0352 0.191646,-0.006 z m -2.614686,1.33758 1.080177,-1.25233 -1.956685,-0.59197 z" />
          </g>
          <g
             transform="translate(475.51985,280.01403)"
             style="font-style:normal;font-weight:normal;font-size:5.64444px;line-height:1.25;font-family:sans-serif;display:inline;fill:#553388;fill-opacity:1;stroke:none;stroke-width:0.264583"
             id="g5707"
             aria-label="PADARIA">
            <path
               id="path5693"
               style="font-style:normal;font-variant:normal;font-weight:600;font-stretch:normal;font-size:5.64444px;font-family:Nunito;-inkscape-font-specification:'Nunito Semi-Bold';text-align:center;text-anchor:middle;fill:#553388;fill-opacity:1;stroke-width:0.264583"
               d="m 2.3022242,190.51795 q -0.112659,0.0645 -0.2205019,0.0352 -0.1078429,-0.0293 -0.1751593,-0.14686 l -1.70534793,-2.97812 q -0.0645115,-0.11266 -0.0372977,-0.2128 0.0293072,-0.10784 0.14686436,-0.17516 L 1.491252,186.36424 q 0.5486003,-0.31414 1.0065564,-0.21864 0.4579561,0.0955 0.7412458,0.59022 0.2804849,0.48983 0.133867,0.93803 -0.146618,0.4482 -0.6952182,0.76234 l -0.925763,0.53012 0.6591394,1.15108 q 0.067316,0.11755 0.038009,0.2254 -0.024409,0.10504 -0.1468642,0.17516 z m 0.088796,-2.45746 q 0.7249361,-0.41512 0.3631107,-1.04699 -0.3590207,-0.62697 -1.0839568,-0.21185 l -0.87188259,0.49926 0.72084609,1.25884 z" />
            <path
               id="path5695"
               style="font-style:normal;font-variant:normal;font-weight:600;font-stretch:normal;font-size:5.64444px;font-family:Nunito;-inkscape-font-specification:'Nunito Semi-Bold';text-align:center;text-anchor:middle;fill:#553388;fill-opacity:1;stroke-width:0.264583"
               d="m 8.0874748,187.54645 q 0.04941,0.0542 0.064637,0.0968 0.036165,0.10097 -0.024112,0.2005 -0.054963,0.0976 -0.1559255,0.1338 -0.06908,0.0247 -0.1461694,0.0104 -0.073679,-0.0216 -0.1322102,-0.0846 l -0.6362253,-0.67145 -1.9448586,0.69665 -0.065199,0.9227 q -0.00523,0.0858 -0.053774,0.15117 -0.050442,0.06 -0.1195216,0.0848 -0.1062764,0.0381 -0.216042,-5.6e-4 -0.1044518,-0.0405 -0.1406168,-0.14149 -0.015227,-0.0425 -0.011499,-0.11579 l 0.3240871,-3.81539 q 0.00674,-0.0984 0.069319,-0.17472 0.06789,-0.0783 0.1582254,-0.11064 0.090335,-0.0324 0.187173,-0.0131 0.1021519,0.0174 0.1698034,0.0891 z m -2.9343323,-0.12406 1.5569496,-0.5577 -1.4111639,-1.47907 z" />
            <path
               id="path5697"
               style="font-style:normal;font-variant:normal;font-weight:600;font-stretch:normal;font-size:5.64444px;font-family:Nunito;-inkscape-font-specification:'Nunito Semi-Bold';text-align:center;text-anchor:middle;fill:#553388;fill-opacity:1;stroke-width:0.264583"
               d="m 9.1191125,187.69606 q -0.1339945,0.0199 -0.2229459,-0.041 -0.084198,-0.0674 -0.1032846,-0.19579 L 8.2908271,184.0815 q -0.019086,-0.12842 0.042706,-0.21178 0.066546,-0.0898 0.2005402,-0.1097 l 1.0942887,-0.16265 q 0.954711,-0.1419 1.555868,0.29374 0.601158,0.43564 0.740572,1.3736 0.139413,0.93796 -0.308223,1.53519 -0.448467,0.59166 -1.403178,0.73356 z m 0.9894235,-0.63782 q 1.451607,-0.21576 1.230039,-1.70645 -0.220738,-1.4851 -1.6723452,-1.26934 l -0.7704685,0.11451 0.4423062,2.9758 z" />
            <path
               id="path5699"
               style="font-style:normal;font-variant:normal;font-weight:600;font-stretch:normal;font-size:5.64444px;font-family:Nunito;-inkscape-font-specification:'Nunito Semi-Bold';text-align:center;text-anchor:middle;fill:#553388;fill-opacity:1;stroke-width:0.264583"
               d="m 16.44241,187.04587 q 0.02507,0.069 0.02299,0.11407 -0.0049,0.10713 -0.09855,0.17627 -0.08796,0.0694 -0.195091,0.0644 -0.0733,-0.003 -0.139139,-0.046 -0.05994,-0.048 -0.09012,-0.12847 l -0.333081,-0.86295 -2.063666,-0.0953 -0.411192,0.82858 q -0.03748,0.0774 -0.10722,0.11936 -0.06948,0.0363 -0.142783,0.033 -0.112769,-0.005 -0.199599,-0.0827 -0.08119,-0.0772 -0.07624,-0.18434 0.0021,-0.0451 0.0334,-0.11146 l 1.750684,-3.40549 q 0.04364,-0.0884 0.130555,-0.13523 0.09256,-0.0466 0.188411,-0.0422 0.09585,0.004 0.178087,0.0591 0.08787,0.0549 0.123175,0.14695 z m -2.666692,-1.23063 1.65206,0.0763 -0.742668,-1.90459 z" />
            <path
               id="path5701"
               style="font-style:normal;font-variant:normal;font-weight:600;font-stretch:normal;font-size:5.64444px;font-family:Nunito;-inkscape-font-specification:'Nunito Semi-Bold';text-align:center;text-anchor:middle;fill:#553388;fill-opacity:1;stroke-width:0.264583"
               d="m 20.161483,187.88687 q 0.03223,0.0832 0.01244,0.16554 -0.02376,0.0988 -0.123235,0.15033 -0.09267,0.0474 -0.196941,0.0223 -0.153663,-0.037 -0.213962,-0.1966 l -0.460856,-1.31835 q -0.07871,-0.22792 -0.202917,-0.33907 -0.122889,-0.11664 -0.353383,-0.17207 l -0.620139,-0.14915 -0.322046,1.33907 q -0.03168,0.13171 -0.126986,0.19006 -0.08982,0.0597 -0.221532,0.028 -0.126223,-0.0304 -0.184577,-0.12567 -0.05835,-0.0953 -0.02668,-0.22702 l 0.802473,-3.33668 q 0.03036,-0.12622 0.118859,-0.18041 0.09531,-0.0584 0.22702,-0.0267 l 1.366502,0.32864 q 0.642091,0.15442 0.908223,0.52031 0.271621,0.3672 0.139635,0.916 -0.109548,0.4555 -0.436114,0.67884 -0.325247,0.21785 -0.821178,0.17986 0.133448,0.0727 0.224938,0.19923 0.09149,0.1265 0.159013,0.32851 z m -1.028689,-2.04707 q 0.428061,0.10295 0.670711,-0.0129 0.249458,-0.11997 0.333929,-0.4712 0.08447,-0.35123 -0.08031,-0.55921 -0.163459,-0.21348 -0.597007,-0.31775 l -1.026248,-0.24681 -0.327325,1.36101 z" />
            <path
               id="path5703"
               style="font-style:normal;font-variant:normal;font-weight:600;font-stretch:normal;font-size:5.64444px;font-family:Nunito;-inkscape-font-specification:'Nunito Semi-Bold';text-align:center;text-anchor:middle;fill:#553388;fill-opacity:1;stroke-width:0.264583"
               d="m 21.064503,188.68227 q -0.121282,-0.0463 -0.166919,-0.14832 -0.04564,-0.10201 0.0027,-0.22857 l 1.230176,-3.22189 q 0.04631,-0.12128 0.14832,-0.16691 0.104024,-0.0509 0.225306,-0.005 0.126556,0.0483 0.172192,0.15034 0.04564,0.10201 -0.0027,0.22856 l -1.230177,3.22189 q -0.04832,0.12656 -0.150332,0.17219 -0.09674,0.0477 -0.228567,-0.003 z" />
            <path
               id="path5705"
               style="font-style:normal;font-variant:normal;font-weight:600;font-stretch:normal;font-size:5.64444px;font-family:Nunito;-inkscape-font-specification:'Nunito Semi-Bold';text-align:center;text-anchor:middle;fill:#553388;fill-opacity:1;stroke-width:0.264583"
               d="m 25.475956,190.45321 q -0.0076,0.073 -0.02925,0.11262 -0.05133,0.0942 -0.165749,0.11536 -0.10946,0.0239 -0.203621,-0.0274 -0.06443,-0.0351 -0.104984,-0.10223 -0.0329,-0.0694 -0.02481,-0.15496 l 0.07817,-0.92169 -1.813837,-0.98883 -0.732345,0.56506 q -0.06756,0.0532 -0.148644,0.0604 -0.07838,0.002 -0.142808,-0.0328 -0.09912,-0.054 -0.143288,-0.16169 -0.03922,-0.10495 0.01212,-0.19911 0.02161,-0.0396 0.07881,-0.0856 l 3.064515,-2.29586 q 0.07792,-0.0604 0.176572,-0.0645 0.103609,-0.001 0.187858,0.0446 0.08425,0.0459 0.134271,0.13106 0.05498,0.0878 0.04644,0.18604 z m -1.859175,-2.27358 1.452061,0.79161 0.165764,-2.03754 z" />
          </g>
        </g>
      </g>
    </g>
    <rect
       style="display:inline;fill:#553388;fill-opacity:1;stroke:none;stroke-width:2;stroke-miterlimit:4;stroke-dasharray:none;stroke-opacity:1"
       id="rect5906"
       width="339.74817"
       height="211.42395"
       x="-489.56882"
       y="-0.24943796" />
    <path
       inkscape:original-d="m -402.36265,87.891867 v 22.562993 l -19.5434,11.2815 -19.5435,-11.2815 V 87.891867"
       inkscape:path-effect="#path-effect5910"
       id="path5908"
       style="display:inline;fill:none;stroke:#edc151;stroke-width:3.49999;stroke-linecap:square;stroke-linejoin:round;stroke-miterlimit:4;stroke-dasharray:none;stroke-opacity:1"
       inkscape:transform-center-x="9.6717903e-06"
       inkscape:transform-center-y="-2.5028382e-06"
       d="m -402.36265,87.891867 v 20.975493 a 2.7494007,2.7494007 120.00207 0 1 -1.37487,2.38115 l -16.79366,9.6942 a 2.7500977,2.7500977 179.99994 0 1 -2.74974,0 l -16.79376,-9.6942 a 2.7493937,2.7493937 59.997862 0 1 -1.37487,-2.38115 V 87.891867"
       sodipodi:nodetypes="ccccc" />
    <path
       inkscape:original-d="m -402.36265,99.273265 -19.5434,11.281495 -19.5435,-11.281495 v -22.5631 l 19.5435,-11.2815 19.5434,11.2815 z"
       inkscape:path-effect="#path-effect5914"
       d="m -403.73752,100.06692 -16.79366,9.69419 a 2.7500989,2.7500989 179.99994 0 1 -2.74974,0 l -16.79376,-9.6942 a 2.7493931,2.7493931 59.997856 0 1 -1.37487,-2.381145 v -19.3881 a 2.7493937,2.7493937 120.00214 0 1 1.37487,-2.381147 l 16.79376,-9.694206 a 2.7500977,2.7500977 6.346805e-5 0 1 2.74974,3e-6 l 16.79366,9.6942 a 2.7494007,2.7494007 59.997925 0 1 1.37487,2.38115 v 19.3881 a 2.7494001,2.7494001 120.00208 0 1 -1.37487,2.381155 z"
       inkscape:transform-center-y="-2.5028382e-06"
       inkscape:transform-center-x="9.6717903e-06"
       style="display:inline;fill:none;stroke:#edc151;stroke-width:3.49999;stroke-linecap:square;stroke-linejoin:round;stroke-miterlimit:4;stroke-dasharray:none;stroke-opacity:1"
       id="path5912" />
    <path
       id="path5916"
       style="display:inline;fill:none;stroke:#edc151;stroke-width:3.49999;stroke-linecap:round;stroke-linejoin:round;stroke-miterlimit:4;stroke-dasharray:none;stroke-opacity:1"
       inkscape:transform-center-x="4.5623422e-06"
       d="m -431.57686,127.31726 v -23.5442 l 9.67081,-5.587994 9.67071,5.587994 v 23.5442"
       sodipodi:nodetypes="ccccc" />
    <path
       style="display:inline;fill:none;stroke:#edc151;stroke-width:3.49999;stroke-linecap:round;stroke-linejoin:miter;stroke-miterlimit:4;stroke-dasharray:none;stroke-opacity:1"
       d="m -421.90605,110.51996 v 41.2312"
       id="path5918"
       sodipodi:nodetypes="cc" />
    <path
       inkscape:original-d="m -402.36265,99.055167 v 22.563103 l -19.5434,11.2815 -19.5435,-11.2815 V 99.055167"
       inkscape:path-effect="#path-effect5922"
       sodipodi:nodetypes="ccccc"
       d="m -402.36265,99.055167 v 20.975603 a 2.7494007,2.7494007 120.00207 0 1 -1.37487,2.38115 l -16.79366,9.6942 a 2.7500977,2.7500977 179.99994 0 1 -2.74974,0 l -16.79376,-9.6942 a 2.7493937,2.7493937 59.997862 0 1 -1.37487,-2.38115 l 0,-20.975603"
       inkscape:transform-center-y="-2.5028382e-06"
       inkscape:transform-center-x="9.6717903e-06"
       style="display:inline;fill:none;stroke:#edc151;stroke-width:3.49999;stroke-linecap:square;stroke-linejoin:round;stroke-miterlimit:4;stroke-dasharray:none;stroke-opacity:1"
       id="path5920" />
    <path
       sodipodi:nodetypes="ccccc"
       id="path5924"
       d="m -441.44955,49.404564 v 19.038001 l 19.5435,-11.2815 19.5434,11.2815 V 49.404564"
       style="display:inline;fill:none;stroke:#edc151;stroke-width:3.49999;stroke-linecap:round;stroke-linejoin:round;stroke-miterlimit:4;stroke-dasharray:none;stroke-opacity:1" />
    <path
       id="path5926"
       d="M -421.90605,38.122964 V 57.161065"
       style="display:inline;fill:none;stroke:#edc151;stroke-width:3.49999;stroke-linecap:round;stroke-linejoin:miter;stroke-miterlimit:4;stroke-dasharray:none;stroke-opacity:1" />
    <path
       id="path5928"
       d="m -431.24687,62.418966 v -9.6935"
       style="display:inline;fill:none;stroke:#edc151;stroke-width:3.49999;stroke-linecap:round;stroke-linejoin:miter;stroke-miterlimit:4;stroke-dasharray:none;stroke-opacity:1" />
    <path
       style="display:inline;fill:none;stroke:#edc151;stroke-width:3.49999;stroke-linecap:round;stroke-linejoin:miter;stroke-miterlimit:4;stroke-dasharray:none;stroke-opacity:1"
       d="m -412.79774,62.418966 v -9.6935"
       id="path5930" />
    <circle
       r="2.980078"
       cy="56.422684"
       cx="-441.44955"
       id="circle5932"
       style="display:inline;fill:#edc151;fill-opacity:1;stroke:none;stroke-width:1;stroke-miterlimit:4;stroke-dasharray:none;stroke-opacity:1" />
    <circle
       style="display:inline;fill:#edc151;fill-opacity:1;stroke:none;stroke-width:1;stroke-miterlimit:4;stroke-dasharray:none;stroke-opacity:1"
       id="circle5934"
       cx="-421.90604"
       cy="44.068798"
       r="2.98" />
    <circle
       r="2.98"
       cy="56.422684"
       cx="-402.36276"
       id="circle5936"
       style="display:inline;fill:#edc151;fill-opacity:1;stroke:none;stroke-width:1;stroke-miterlimit:4;stroke-dasharray:none;stroke-opacity:1" />
    <g
       style="display:inline;stroke:#edc151;stroke-width:2;stroke-miterlimit:4;stroke-dasharray:none;stroke-opacity:1"
       transform="translate(-547.19181,-18.126858)"
       id="g5946">
      <path
         style="fill:none;stroke:#edc151;stroke-width:2;stroke-linecap:round;stroke-linejoin:round;stroke-miterlimit:4;stroke-dasharray:none;stroke-opacity:1"
         d="m 138.90148,98.113453 h -10.69279 v 12.116007 h -5.50928"
         id="path5938" />
      <path
         id="path5940"
         d="m 130.90148,101.8726 3.89697,-0.88745 4.10303,0.93438"
         style="fill:none;stroke:#edc151;stroke-width:2;stroke-linecap:round;stroke-linejoin:round;stroke-miterlimit:4;stroke-dasharray:none;stroke-opacity:1" />
      <path
         style="fill:none;stroke:#edc151;stroke-width:2;stroke-linecap:round;stroke-linejoin:round;stroke-miterlimit:4;stroke-dasharray:none;stroke-opacity:1"
         d="m 113.01623,101.8726 3.89697,-0.88745 4.10303,0.93438"
         id="path5942" />
      <path
         style="fill:none;stroke:#edc151;stroke-width:2;stroke-linecap:round;stroke-linejoin:miter;stroke-miterlimit:4;stroke-dasharray:none;stroke-opacity:1"
         d="m 111.66983,98.113453 h 10.69279"
         id="path5944" />
    </g>
    <path
       style="display:inline;fill:none;stroke:#edc151;stroke-width:2;stroke-linecap:round;stroke-linejoin:miter;stroke-miterlimit:4;stroke-dasharray:none;stroke-opacity:1"
       d="m -425.09245,104.29976 h 6.3727"
       id="path5948" />
    <g
       style="display:inline;fill:#ffffff;fill-opacity:1"
       id="g5958"
       transform="translate(-462.52581,-23.94475)">
      <text
         xml:space="preserve"
         style="font-size:35.5261px;line-height:1.25;font-family:'Abril Fatface';-inkscape-font-specification:'Abril Fatface';fill:#ffffff;fill-opacity:1;stroke-width:0.264584"
         x="80.03447"
         y="127.72017"
         id="text5952"><tspan
           sodipodi:role="line"
           id="tspan5950"
           x="80.03447"
           y="127.72017"
           style="fill:#ffffff;fill-opacity:1;stroke-width:0.264584">Baking</tspan></text>
      <text
         xml:space="preserve"
         style="font-size:7.81722px;line-height:1.25;font-family:'Abril Fatface';-inkscape-font-specification:'Abril Fatface';fill:#ffffff;fill-opacity:1;stroke-width:0.25301"
         x="82.370384"
         y="136.55704"
         id="text5956"><tspan
           sodipodi:role="line"
           id="tspan5954"
           x="82.370384"
           y="136.55704"
           style="font-style:normal;font-variant:normal;font-weight:normal;font-stretch:normal;font-size:7.81722px;font-family:Nunito;-inkscape-font-specification:Nunito;fill:#ffffff;fill-opacity:1;stroke-width:0.25301">PADARIA E CONFEITARIA</tspan></text>
    </g>
    <text
       id="text5962"
       y="107.33322"
       x="-218.01518"
       style="font-size:35.5261px;line-height:1.25;font-family:'Abril Fatface';-inkscape-font-specification:'Abril Fatface';display:inline;fill:#ffffff;fill-opacity:1;stroke-width:0.264583"
       xml:space="preserve"><tspan
         style="fill:#ffffff;fill-opacity:1;stroke-width:0.264583"
         y="107.33322"
         x="-218.01518"
         id="tspan5960"
         sodipodi:role="line">B</tspan></text>
    <path
       sodipodi:nodetypes="csccsc"
       d="m -193.13965,78.760466 c 4.65717,3.8305 7.62738,9.6378 7.62738,16.1387 0,5.056796 -1.7971,9.693894 -4.7875,13.307394 m -32.44718,-0.3084 c -2.84009,-3.5672 -4.53724,-8.084898 -4.53724,-12.998994 0,-6.850902 3.29854,-12.931302 8.39402,-16.739899"
       style="display:inline;fill:none;stroke:#edc151;stroke-width:1.5;stroke-miterlimit:9;stroke-dasharray:none;stroke-opacity:1"
       id="path5964" />
    <g
       transform="translate(-242.57112,-133.85045)"
       style="font-style:normal;font-weight:normal;font-size:5.64444px;line-height:2.1;font-family:sans-serif;letter-spacing:0.396875px;display:inline;fill:#ffffff;fill-opacity:1;stroke:none;stroke-width:0.264583"
       id="g5988"
       aria-label="CONFEITARIA">
      <path
         id="path5966"
         style="font-style:normal;font-variant:normal;font-weight:600;font-stretch:normal;font-size:5.64444px;font-family:Nunito;-inkscape-font-specification:'Nunito Semi-Bold';text-align:center;text-anchor:middle;fill:#ffffff;fill-opacity:1;stroke-width:0.264583"
         d="m 19.700777,245.01432 q -0.360221,-0.44186 -0.439593,-0.92334 -0.075,-0.48504 0.136705,-0.94892 0.216077,-0.46746 0.701687,-0.86334 0.481235,-0.39232 0.978261,-0.50622 0.501401,-0.11746 0.957011,0.0573 0.459985,0.17119 0.820207,0.61305 0.235392,0.28874 0.353946,0.62176 0.122929,0.32944 0.109237,0.66103 0.0021,0.13662 -0.10723,0.22579 -0.07875,0.0642 -0.171286,0.0668 -0.08816,-9.5e-4 -0.138096,-0.0622 -0.06063,-0.0744 -0.06082,-0.19073 -0.0137,-0.33839 -0.09511,-0.56332 -0.07347,-0.22412 -0.2518,-0.44286 -0.39232,-0.48123 -0.913362,-0.48613 -0.521042,-0.005 -1.102899,0.46946 -0.586232,0.47792 -0.686421,0.98926 -0.100189,0.51134 0.292131,0.99258 0.171194,0.20999 0.375913,0.32711 0.208285,0.1215 0.539732,0.21541 0.128204,0.0411 0.17457,0.098 0.04993,0.0613 0.02872,0.15136 -0.01683,0.0866 -0.09558,0.15075 -0.109372,0.0892 -0.242759,0.0595 -0.327548,-0.0534 -0.629846,-0.23662 -0.297924,-0.18679 -0.533316,-0.47553 z" />
      <path
         id="path5968"
         style="font-style:normal;font-variant:normal;font-weight:600;font-stretch:normal;font-size:5.64444px;font-family:Nunito;-inkscape-font-specification:'Nunito Semi-Bold';text-align:center;text-anchor:middle;fill:#ffffff;fill-opacity:1;stroke-width:0.264583"
         d="m 22.658626,247.90646 q -0.439871,-0.35371 -0.609743,-0.80899 -0.165473,-0.45176 -0.05492,-0.94954 0.110557,-0.49777 0.499638,-0.98163 0.392618,-0.48826 0.850673,-0.70661 0.46599,-0.21921 0.94359,-0.14661 0.481137,0.0682 0.921008,0.42192 0.444269,0.35724 0.614141,0.81253 0.173409,0.45089 0.05492,0.94953 -0.110557,0.49778 -0.499638,0.98164 -0.389081,0.48386 -0.855072,0.70307 -0.458054,0.21835 -0.939191,0.15014 -0.481137,-0.0682 -0.925406,-0.42545 z m 0.297116,-0.36949 q 0.466263,0.37494 0.980458,0.26692 0.514195,-0.10802 0.984629,-0.69305 0.470434,-0.58503 0.462045,-1.10602 -4.54e-4,-0.52186 -0.471116,-0.90033 -0.461864,-0.3714 -0.976059,-0.26338 -0.506259,0.10716 -0.976693,0.69218 -0.470435,0.58503 -0.469981,1.10689 0.0049,0.5254 0.466717,0.89679 z" />
      <path
         id="path5970"
         style="font-style:normal;font-variant:normal;font-weight:600;font-stretch:normal;font-size:5.64444px;font-family:Nunito;-inkscape-font-specification:'Nunito Semi-Bold';text-align:center;text-anchor:middle;fill:#ffffff;fill-opacity:1;stroke-width:0.264583"
         d="m 29.607268,247.379 q 0.111463,0.0547 0.140007,0.16308 0.0361,0.10577 -0.02113,0.22229 l -1.52019,3.09563 q -0.05722,0.11653 -0.165476,0.1577 -0.105763,0.0361 -0.217226,-0.0186 -0.131729,-0.0647 -0.1529,-0.20085 l -0.699751,-3.59469 -1.206698,2.45725 q -0.05722,0.11653 -0.165476,0.15769 -0.100697,0.0386 -0.21216,-0.0161 -0.111463,-0.0547 -0.142495,-0.15801 -0.03103,-0.10327 0.02868,-0.22487 l 1.52019,-3.09563 q 0.05723,-0.11653 0.162989,-0.15263 0.108251,-0.0412 0.219714,0.0136 0.131729,0.0647 0.152899,0.20085 l 0.697264,3.59975 1.209185,-2.46231 q 0.05722,-0.11653 0.157922,-0.15512 0.103185,-0.0436 0.214648,0.0111 z" />
      <path
         id="path5972"
         style="font-style:normal;font-variant:normal;font-weight:600;font-stretch:normal;font-size:5.64444px;font-family:Nunito;-inkscape-font-specification:'Nunito Semi-Bold';text-align:center;text-anchor:middle;fill:#ffffff;fill-opacity:1;stroke-width:0.264583"
         d="m 29.617049,251.61952 q -0.125374,-0.0337 -0.181181,-0.13051 -0.05434,-0.10227 -0.02065,-0.22765 l 0.890623,-3.31424 q 0.03369,-0.12537 0.123598,-0.17719 0.09682,-0.0558 0.227648,-0.0206 l 1.951476,0.52441 q 0.26165,0.0703 0.200127,0.29926 -0.06152,0.22894 -0.323174,0.15863 l -1.673472,-0.44971 -0.32373,1.20469 1.564451,0.42041 q 0.261651,0.0703 0.200128,0.29925 -0.06152,0.22895 -0.323174,0.15863 l -1.564451,-0.42041 -0.394042,1.46634 q -0.03516,0.13082 -0.131979,0.18663 -0.09137,0.0573 -0.222197,0.0221 z" />
      <path
         id="path5974"
         style="font-style:normal;font-variant:normal;font-weight:600;font-stretch:normal;font-size:5.64444px;font-family:Nunito;-inkscape-font-specification:'Nunito Semi-Bold';text-align:center;text-anchor:middle;fill:#ffffff;fill-opacity:1;stroke-width:0.264583"
         d="m 33.099758,252.36233 q -0.134915,-0.0122 -0.207,-0.0924 -0.06596,-0.0853 -0.05425,-0.21461 l 0.307868,-3.40098 q 0.0117,-0.12929 0.0914,-0.19576 0.08582,-0.0716 0.220739,-0.0594 l 2.068696,0.18727 q 0.129293,0.0117 0.191153,0.0796 0.06748,0.0684 0.0573,0.18088 -0.01018,0.11243 -0.08885,0.16765 -0.07255,0.0501 -0.20184,0.0384 l -1.787622,-0.16182 -0.11297,1.24796 1.675194,0.15164 q 0.129293,0.0117 0.191153,0.0796 0.06748,0.0685 0.0573,0.18088 -0.01018,0.11243 -0.08885,0.16765 -0.07306,0.0557 -0.202348,0.044 l -1.675194,-0.15164 -0.118567,1.3098 1.787623,0.16182 q 0.269829,0.0244 0.248966,0.25491 -0.01018,0.11243 -0.08885,0.16765 -0.07305,0.0557 -0.202349,0.044 z" />
      <path
         id="path5976"
         style="font-style:normal;font-variant:normal;font-weight:600;font-stretch:normal;font-size:5.64444px;font-family:Nunito;-inkscape-font-specification:'Nunito Semi-Bold';text-align:center;text-anchor:middle;fill:#ffffff;fill-opacity:1;stroke-width:0.264583"
         d="m 36.799306,252.54093 q -0.129714,0.005 -0.211894,-0.0704 -0.08218,-0.0757 -0.0877,-0.21109 l -0.140671,-3.44588 q -0.0053,-0.12971 0.07044,-0.21189 0.0755,-0.0878 0.205217,-0.0931 0.135354,-0.006 0.217533,0.0702 0.08218,0.0757 0.0877,0.21109 l 0.140672,3.44588 q 0.0055,0.13535 -0.07021,0.21753 -0.07009,0.082 -0.211087,0.0877 z" />
      <path
         id="path5978"
         style="font-style:normal;font-variant:normal;font-weight:600;font-stretch:normal;font-size:5.64444px;font-family:Nunito;-inkscape-font-specification:'Nunito Semi-Bold';text-align:center;text-anchor:middle;fill:#ffffff;fill-opacity:1;stroke-width:0.264583"
         d="m 39.645324,252.23424 q -0.128076,0.0212 -0.224521,-0.0429 -0.0918,-0.0706 -0.113022,-0.19869 l -0.527777,-3.18519 -1.113703,0.18454 q -0.267289,0.0443 -0.306964,-0.19516 -0.01938,-0.11693 0.0373,-0.18926 0.06224,-0.0733 0.190317,-0.0945 l 2.806531,-0.46504 q 0.128076,-0.0212 0.205048,0.029 0.08254,0.0493 0.101916,0.1662 0.03968,0.23945 -0.227613,0.28374 l -1.113703,0.18453 0.527778,3.18519 q 0.02122,0.12808 -0.0429,0.22453 -0.06504,0.0909 -0.198686,0.11302 z" />
      <path
         id="path5980"
         style="font-style:normal;font-variant:normal;font-weight:600;font-stretch:normal;font-size:5.64444px;font-family:Nunito;-inkscape-font-specification:'Nunito Semi-Bold';text-align:center;text-anchor:middle;fill:#ffffff;fill-opacity:1;stroke-width:0.264583"
         d="m 44.873611,250.27078 q 0.04982,0.0539 0.06537,0.0963 0.03693,0.10068 -0.02258,0.20067 -0.05422,0.0981 -0.154902,0.13498 -0.06889,0.0253 -0.146087,0.0115 -0.07384,-0.021 -0.132849,-0.0835 l -0.641318,-0.66659 -1.9395,0.71144 -0.05817,0.92316 q -0.0046,0.0859 -0.05262,0.15158 -0.04998,0.0604 -0.118873,0.0857 -0.105984,0.0389 -0.21604,0.001 -0.104757,-0.0397 -0.14169,-0.14041 -0.01555,-0.0424 -0.01238,-0.11571 l 0.295038,-3.81774 q 0.006,-0.0984 0.06799,-0.17525 0.06729,-0.0788 0.157379,-0.11184 0.09009,-0.033 0.187068,-0.0145 0.102281,0.0166 0.170476,0.0878 z m -2.935191,-0.10173 1.552659,-0.56953 -1.42238,-1.46829 z" />
      <path
         id="path5982"
         style="font-style:normal;font-variant:normal;font-weight:600;font-stretch:normal;font-size:5.64444px;font-family:Nunito;-inkscape-font-specification:'Nunito Semi-Bold';text-align:center;text-anchor:middle;fill:#ffffff;fill-opacity:1;stroke-width:0.264583"
         d="m 48.34168,248.13138 q 0.08206,0.0351 0.127125,0.10676 0.05408,0.086 0.02145,0.19319 -0.03085,0.0994 -0.12164,0.15649 -0.133799,0.0841 -0.290139,0.0157 l -1.265203,-0.59136 q -0.218059,-0.10293 -0.384359,-0.0917 -0.169306,0.006 -0.370004,0.13261 l -0.539973,0.33948 0.733033,1.16596 q 0.0721,0.11468 0.04726,0.22364 -0.02006,0.10595 -0.134746,0.17806 -0.109906,0.0691 -0.218865,0.0443 -0.108959,-0.0248 -0.18106,-0.13952 L 43.93799,246.9596 q -0.0691,-0.10991 -0.04603,-0.21109 0.02484,-0.10895 0.139525,-0.18106 l 1.189852,-0.74805 q 0.559087,-0.3515 1.006798,-0.28627 0.452488,0.0622 0.752911,0.54007 0.249352,0.39662 0.180981,0.7863 -0.07137,0.38491 -0.445047,0.71317 0.145272,-0.0447 0.299697,-0.0217 0.154425,0.0229 0.346131,0.11575 z m -2.183286,-0.69424 q 0.372725,-0.23433 0.459403,-0.48884 0.08845,-0.2623 -0.103818,-0.56812 -0.192271,-0.30583 -0.456199,-0.33325 -0.266932,-0.0322 -0.644436,0.20514 l -0.893584,0.56179 0.74505,1.18507 z" />
      <path
         id="path5984"
         style="font-style:normal;font-variant:normal;font-weight:600;font-stretch:normal;font-size:5.64444px;font-family:Nunito;-inkscape-font-specification:'Nunito Semi-Bold';text-align:center;text-anchor:middle;fill:#ffffff;fill-opacity:1;stroke-width:0.264583"
         d="m 49.66902,247.4901 q -0.09867,0.0844 -0.210087,0.0756 -0.111414,-0.009 -0.199447,-0.11167 l -2.241174,-2.62126 q -0.08436,-0.0987 -0.07566,-0.21009 0.005,-0.11571 0.103714,-0.20007 0.102963,-0.088 0.214377,-0.0793 0.111414,0.009 0.199447,0.11168 l 2.241174,2.62126 q 0.08803,0.10297 0.07932,0.21438 -0.0044,0.10775 -0.111673,0.19945 z" />
      <path
         id="path5986"
         style="font-style:normal;font-variant:normal;font-weight:600;font-stretch:normal;font-size:5.64444px;font-family:Nunito;-inkscape-font-specification:'Nunito Semi-Bold';text-align:center;text-anchor:middle;fill:#ffffff;fill-opacity:1;stroke-width:0.264583"
         d="m 52.922268,243.53194 q 0.06972,0.0229 0.103916,0.0524 0.08121,0.07 0.07779,0.18636 2.65e-4,0.11204 -0.06978,0.19325 -0.04793,0.0556 -0.122085,0.0811 -0.07475,0.0175 -0.156704,-0.008 l -0.884443,-0.27089 -1.3493,1.56435 0.39781,0.83509 q 0.03772,0.0772 0.02767,0.15804 -0.01432,0.0771 -0.06225,0.13266 -0.07373,0.0855 -0.188282,0.10594 -0.110864,0.0162 -0.192073,-0.0539 -0.03419,-0.0295 -0.06705,-0.0951 l -1.597543,-3.47996 q -0.04258,-0.0889 -0.02575,-0.1862 0.02052,-0.10156 0.08319,-0.17422 0.06267,-0.0727 0.156439,-0.1036 0.09745,-0.0352 0.191646,-0.006 z m -2.614686,1.33758 1.080177,-1.25233 -1.956685,-0.59197 z" />
    </g>
    <g
       transform="translate(-219.34938,-112.12787)"
       style="font-style:normal;font-weight:normal;font-size:5.64444px;line-height:1.25;font-family:sans-serif;display:inline;fill:#ffffff;fill-opacity:1;stroke:none;stroke-width:0.264583"
       id="g6004"
       aria-label="PADARIA">
      <path
         id="path5990"
         style="font-style:normal;font-variant:normal;font-weight:600;font-stretch:normal;font-size:5.64444px;font-family:Nunito;-inkscape-font-specification:'Nunito Semi-Bold';text-align:center;text-anchor:middle;fill:#ffffff;fill-opacity:1;stroke-width:0.264583"
         d="m 2.3022242,190.51795 q -0.112659,0.0645 -0.2205019,0.0352 -0.1078429,-0.0293 -0.1751593,-0.14686 l -1.70534793,-2.97812 q -0.0645115,-0.11266 -0.0372977,-0.2128 0.0293072,-0.10784 0.14686436,-0.17516 L 1.491252,186.36424 q 0.5486003,-0.31414 1.0065564,-0.21864 0.4579561,0.0955 0.7412458,0.59022 0.2804849,0.48983 0.133867,0.93803 -0.146618,0.4482 -0.6952182,0.76234 l -0.925763,0.53012 0.6591394,1.15108 q 0.067316,0.11755 0.038009,0.2254 -0.024409,0.10504 -0.1468642,0.17516 z m 0.088796,-2.45746 q 0.7249361,-0.41512 0.3631107,-1.04699 -0.3590207,-0.62697 -1.0839568,-0.21185 l -0.87188259,0.49926 0.72084609,1.25884 z" />
      <path
         id="path5992"
         style="font-style:normal;font-variant:normal;font-weight:600;font-stretch:normal;font-size:5.64444px;font-family:Nunito;-inkscape-font-specification:'Nunito Semi-Bold';text-align:center;text-anchor:middle;fill:#ffffff;fill-opacity:1;stroke-width:0.264583"
         d="m 8.0874748,187.54645 q 0.04941,0.0542 0.064637,0.0968 0.036165,0.10097 -0.024112,0.2005 -0.054963,0.0976 -0.1559255,0.1338 -0.06908,0.0247 -0.1461694,0.0104 -0.073679,-0.0216 -0.1322102,-0.0846 l -0.6362253,-0.67145 -1.9448586,0.69665 -0.065199,0.9227 q -0.00523,0.0858 -0.053774,0.15117 -0.050442,0.06 -0.1195216,0.0848 -0.1062764,0.0381 -0.216042,-5.6e-4 -0.1044518,-0.0405 -0.1406168,-0.14149 -0.015227,-0.0425 -0.011499,-0.11579 l 0.3240871,-3.81539 q 0.00674,-0.0984 0.069319,-0.17472 0.06789,-0.0783 0.1582254,-0.11064 0.090335,-0.0324 0.187173,-0.0131 0.1021519,0.0174 0.1698034,0.0891 z m -2.9343323,-0.12406 1.5569496,-0.5577 -1.4111639,-1.47907 z" />
      <path
         id="path5994"
         style="font-style:normal;font-variant:normal;font-weight:600;font-stretch:normal;font-size:5.64444px;font-family:Nunito;-inkscape-font-specification:'Nunito Semi-Bold';text-align:center;text-anchor:middle;fill:#ffffff;fill-opacity:1;stroke-width:0.264583"
         d="m 9.1191125,187.69606 q -0.1339945,0.0199 -0.2229459,-0.041 -0.084198,-0.0674 -0.1032846,-0.19579 L 8.2908271,184.0815 q -0.019086,-0.12842 0.042706,-0.21178 0.066546,-0.0898 0.2005402,-0.1097 l 1.0942887,-0.16265 q 0.954711,-0.1419 1.555868,0.29374 0.601158,0.43564 0.740572,1.3736 0.139413,0.93796 -0.308223,1.53519 -0.448467,0.59166 -1.403178,0.73356 z m 0.9894235,-0.63782 q 1.451607,-0.21576 1.230039,-1.70645 -0.220738,-1.4851 -1.6723452,-1.26934 l -0.7704685,0.11451 0.4423062,2.9758 z" />
      <path
         id="path5996"
         style="font-style:normal;font-variant:normal;font-weight:600;font-stretch:normal;font-size:5.64444px;font-family:Nunito;-inkscape-font-specification:'Nunito Semi-Bold';text-align:center;text-anchor:middle;fill:#ffffff;fill-opacity:1;stroke-width:0.264583"
         d="m 16.44241,187.04587 q 0.02507,0.069 0.02299,0.11407 -0.0049,0.10713 -0.09855,0.17627 -0.08796,0.0694 -0.195091,0.0644 -0.0733,-0.003 -0.139139,-0.046 -0.05994,-0.048 -0.09012,-0.12847 l -0.333081,-0.86295 -2.063666,-0.0953 -0.411192,0.82858 q -0.03748,0.0774 -0.10722,0.11936 -0.06948,0.0363 -0.142783,0.033 -0.112769,-0.005 -0.199599,-0.0827 -0.08119,-0.0772 -0.07624,-0.18434 0.0021,-0.0451 0.0334,-0.11146 l 1.750684,-3.40549 q 0.04364,-0.0884 0.130555,-0.13523 0.09256,-0.0466 0.188411,-0.0422 0.09585,0.004 0.178087,0.0591 0.08787,0.0549 0.123175,0.14695 z m -2.666692,-1.23063 1.65206,0.0763 -0.742668,-1.90459 z" />
      <path
         id="path5998"
         style="font-style:normal;font-variant:normal;font-weight:600;font-stretch:normal;font-size:5.64444px;font-family:Nunito;-inkscape-font-specification:'Nunito Semi-Bold';text-align:center;text-anchor:middle;fill:#ffffff;fill-opacity:1;stroke-width:0.264583"
         d="m 20.161483,187.88687 q 0.03223,0.0832 0.01244,0.16554 -0.02376,0.0988 -0.123235,0.15033 -0.09267,0.0474 -0.196941,0.0223 -0.153663,-0.037 -0.213962,-0.1966 l -0.460856,-1.31835 q -0.07871,-0.22792 -0.202917,-0.33907 -0.122889,-0.11664 -0.353383,-0.17207 l -0.620139,-0.14915 -0.322046,1.33907 q -0.03168,0.13171 -0.126986,0.19006 -0.08982,0.0597 -0.221532,0.028 -0.126223,-0.0304 -0.184577,-0.12567 -0.05835,-0.0953 -0.02668,-0.22702 l 0.802473,-3.33668 q 0.03036,-0.12622 0.118859,-0.18041 0.09531,-0.0584 0.22702,-0.0267 l 1.366502,0.32864 q 0.642091,0.15442 0.908223,0.52031 0.271621,0.3672 0.139635,0.916 -0.109548,0.4555 -0.436114,0.67884 -0.325247,0.21785 -0.821178,0.17986 0.133448,0.0727 0.224938,0.19923 0.09149,0.1265 0.159013,0.32851 z m -1.028689,-2.04707 q 0.428061,0.10295 0.670711,-0.0129 0.249458,-0.11997 0.333929,-0.4712 0.08447,-0.35123 -0.08031,-0.55921 -0.163459,-0.21348 -0.597007,-0.31775 l -1.026248,-0.24681 -0.327325,1.36101 z" />
      <path
         id="path6000"
         style="font-style:normal;font-variant:normal;font-weight:600;font-stretch:normal;font-size:5.64444px;font-family:Nunito;-inkscape-font-specification:'Nunito Semi-Bold';text-align:center;text-anchor:middle;fill:#ffffff;fill-opacity:1;stroke-width:0.264583"
         d="m 21.064503,188.68227 q -0.121282,-0.0463 -0.166919,-0.14832 -0.04564,-0.10201 0.0027,-0.22857 l 1.230176,-3.22189 q 0.04631,-0.12128 0.14832,-0.16691 0.104024,-0.0509 0.225306,-0.005 0.126556,0.0483 0.172192,0.15034 0.04564,0.10201 -0.0027,0.22856 l -1.230177,3.22189 q -0.04832,0.12656 -0.150332,0.17219 -0.09674,0.0477 -0.228567,-0.003 z" />
      <path
         id="path6002"
         style="font-style:normal;font-variant:normal;font-weight:600;font-stretch:normal;font-size:5.64444px;font-family:Nunito;-inkscape-font-specification:'Nunito Semi-Bold';text-align:center;text-anchor:middle;fill:#ffffff;fill-opacity:1;stroke-width:0.264583"
         d="m 25.475956,190.45321 q -0.0076,0.073 -0.02925,0.11262 -0.05133,0.0942 -0.165749,0.11536 -0.10946,0.0239 -0.203621,-0.0274 -0.06443,-0.0351 -0.104984,-0.10223 -0.0329,-0.0694 -0.02481,-0.15496 l 0.07817,-0.92169 -1.813837,-0.98883 -0.732345,0.56506 q -0.06756,0.0532 -0.148644,0.0604 -0.07838,0.002 -0.142808,-0.0328 -0.09912,-0.054 -0.143288,-0.16169 -0.03922,-0.10495 0.01212,-0.19911 0.02161,-0.0396 0.07881,-0.0856 l 3.064515,-2.29586 q 0.07792,-0.0604 0.176572,-0.0645 0.103609,-0.001 0.187858,0.0446 0.08425,0.0459 0.134271,0.13106 0.05498,0.0878 0.04644,0.18604 z m -1.859175,-2.27358 1.452061,0.79161 0.165764,-2.03754 z" />
    </g>
    <text
       xml:space="preserve"
       style="font-style:normal;font-weight:normal;font-size:25.4px;line-height:1.25;font-family:sans-serif;fill:#000000;fill-opacity:1;stroke:none;stroke-width:0.264583"
       x="-818.44952"
       y="465.56271"
       id="text8542"><tspan
         sodipodi:role="line"
         id="tspan8540"
         x="-818.44952"
         y="465.56271"
         style="font-style:normal;font-variant:normal;font-weight:normal;font-stretch:normal;font-size:25.4px;font-family:'Bebas Neue';-inkscape-font-specification:'Bebas Neue';stroke-width:0.264583">bebas neue</tspan><tspan
         sodipodi:role="line"
         x="-818.44952"
         y="498.26089"
         style="font-style:normal;font-variant:normal;font-weight:normal;font-stretch:normal;font-size:25.4px;font-family:'Bebas Neue';-inkscape-font-specification:'Bebas Neue';stroke-width:0.264583"
         id="tspan8548">textos corridos</tspan><tspan
         sodipodi:role="line"
         x="-818.44952"
         y="530.95911"
         style="font-style:normal;font-variant:normal;font-weight:normal;font-stretch:normal;font-size:25.4px;font-family:'Bebas Neue';-inkscape-font-specification:'Bebas Neue';stroke-width:0.264583"
         id="tspan8550">descritivos curtos</tspan></text>
    <text
       id="text8546"
       y="465.56271"
       x="-543.23218"
       style="font-style:normal;font-weight:normal;font-size:25.4px;line-height:1.25;font-family:sans-serif;fill:#000000;fill-opacity:1;stroke:none;stroke-width:0.264583"
       xml:space="preserve"><tspan
         style="font-style:normal;font-variant:normal;font-weight:normal;font-stretch:normal;font-size:25.4px;font-family:'Playfair Display';-inkscape-font-specification:'Playfair Display';stroke-width:0.264583"
         y="465.56271"
         x="-543.23218"
         id="tspan8544"
         sodipodi:role="line">Playfair Display</tspan><tspan
         style="font-style:italic;font-variant:normal;font-weight:800;font-stretch:normal;font-size:25.4px;font-family:'Playfair Display';-inkscape-font-specification:'Playfair Display Ultra-Bold Italic';stroke-width:0.264583"
         y="497.93176"
         x="-543.23218"
         sodipodi:role="line"
         id="tspan8554">Ttulos</tspan><tspan
         style="font-style:italic;font-variant:normal;font-weight:800;font-stretch:normal;font-size:25.4px;font-family:'Playfair Display';-inkscape-font-specification:'Playfair Display Ultra-Bold Italic';stroke-width:0.264583"
         y="530.30084"
         x="-543.23218"
         sodipodi:role="line"
         id="tspan8552">Destaques</tspan></text>
    <text
       xml:space="preserve"
       style="font-style:normal;font-weight:normal;font-size:25.4px;line-height:0.65;font-family:sans-serif;fill:#000000;fill-opacity:1;stroke:none;stroke-width:0.264583"
       x="-817.0271"
       y="776.65485"
       id="text8562"><tspan
         id="tspan8558"
         sodipodi:role="line"
         x="-817.0271"
         y="776.65485"
         style="font-style:italic;font-variant:normal;font-weight:800;font-stretch:normal;font-size:25.4px;font-family:'Playfair Display';-inkscape-font-specification:'Playfair Display Ultra-Bold Italic';stroke-width:0.264583">Menu</tspan><tspan
         sodipodi:role="line"
         x="-817.0271"
         y="793.78394"
         style="font-style:italic;font-variant:normal;font-weight:800;font-stretch:normal;font-size:25.4px;font-family:'Playfair Display';-inkscape-font-specification:'Playfair Display Ultra-Bold Italic';stroke-width:0.264583"
         id="tspan8572" /><tspan
         sodipodi:role="line"
         x="-817.0271"
         y="810.29388"
         style="font-style:italic;font-variant:normal;font-weight:bold;font-stretch:normal;font-size:16.9333px;font-family:'Playfair Display';-inkscape-font-specification:'Playfair Display Bold Italic';stroke-width:0.264583"
         id="tspan8566">Sanduiches</tspan><tspan
         sodipodi:role="line"
         x="-817.0271"
         y="826.80389"
         style="font-style:normal;font-variant:normal;font-weight:normal;font-stretch:normal;font-size:16.9333px;font-family:'Bebas Neue';-inkscape-font-specification:'Bebas Neue';stroke-width:0.264583"
         id="tspan8570">Misto quente</tspan></text>
    <rect
       ry="0"
       y="697.03894"
       x="-616.85803"
       height="243.7498"
       width="184.41597"
       id="rect11120"
       style="fill:url(#pattern11133);fill-opacity:1;stroke-width:0.354999;stroke-miterlimit:4.41667;stroke-dasharray:none" />
    <rect
       style="display:inline;fill:#553388;fill-opacity:1;stroke:none;stroke-width:2"
       id="rect11135"
       width="32.927589"
       height="32.927589"
       x="-679.1853"
       y="697.03894" />
    <rect
       y="729.96655"
       x="-679.1853"
       height="32.927589"
       width="32.927589"
       id="rect11269"
       style="display:inline;fill:#edc151;fill-opacity:1;stroke:none;stroke-width:2" />
  </g>
</svg>
