<?xml version="1.0" encoding="UTF-8" standalone="no"?>
<svg
   xmlns:dc="http://purl.org/dc/elements/1.1/"
   xmlns:cc="http://creativecommons.org/ns#"
   xmlns:rdf="http://www.w3.org/1999/02/22-rdf-syntax-ns#"
   xmlns:svg="http://www.w3.org/2000/svg"
   xmlns="http://www.w3.org/2000/svg"
   xmlns:xlink="http://www.w3.org/1999/xlink"
   xmlns:sodipodi="http://sodipodi.sourceforge.net/DTD/sodipodi-0.dtd"
   xmlns:inkscape="http://www.inkscape.org/namespaces/inkscape"
   width="210mm"
   height="297mm"
   viewBox="0 0 210 297"
   version="1.1"
   id="svg8"
   sodipodi:docname="aula_3.5.svg"
   inkscape:version="1.0 (4035a4fb49, 2020-05-01)">
  <defs
     id="defs2">
    <inkscape:path-effect
       hide_knots="false"
       only_selected="false"
       apply_with_radius="true"
       apply_no_radius="true"
       use_knot_distance="true"
       flexible="false"
       chamfer_steps="1"
       radius="6"
       mode="F"
       method="auto"
       unit="px"
       satellites_param="F,0,0,1,0,0,0,1 @ F,0,0,1,0,1.5875,0,1 @ F,0,0,1,0,1.5875,0,1 @ F,0,0,1,0,1.5875,0,1 @ F,0,0,1,0,1.5875,0,1"
       lpeversion="1"
       is_visible="true"
       id="path-effect873"
       effect="fillet_chamfer" />
    <inkscape:path-effect
       hide_knots="false"
       only_selected="false"
       apply_with_radius="true"
       apply_no_radius="true"
       use_knot_distance="true"
       flexible="false"
       chamfer_steps="1"
       radius="6"
       mode="F"
       method="auto"
       unit="px"
       satellites_param="F,0,0,1,0,0,0,1 @ F,0,0,1,0,1.5875,0,1 @ F,0,0,1,0,1.5875,0,1 @ F,0,0,1,0,1.5875,0,1 @ F,0,0,1,0,1.5875,0,1"
       lpeversion="1"
       is_visible="true"
       id="path-effect871"
       effect="fillet_chamfer" />
    <inkscape:path-effect
       hide_knots="false"
       only_selected="false"
       apply_with_radius="true"
       apply_no_radius="true"
       use_knot_distance="true"
       flexible="false"
       chamfer_steps="1"
       radius="6"
       mode="F"
       method="auto"
       unit="px"
       satellites_param="F,0,0,1,0,1.5875,0,1 @ F,0,0,1,0,1.5875,0,1 @ F,0,0,1,0,1.5875,0,1 @ F,0,0,1,0,1.5875,0,1 @ F,0,0,1,0,1.5875,0,1 @ F,0,0,1,0,1.5875,0,1"
       lpeversion="1"
       is_visible="true"
       id="path-effect869"
       effect="fillet_chamfer" />
    <clipPath
       id="clipPath856"
       clipPathUnits="userSpaceOnUse">
      <rect
         transform="rotate(-5.3402593)"
         y="59.074345"
         x="94.688545"
         height="89.6008"
         width="61.90086"
         id="rect858"
         style="fill:none;stroke:#000000;stroke-width:1;stroke-linecap:square;stroke-opacity:1" />
    </clipPath>
  </defs>
  <sodipodi:namedview
     inkscape:guide-bbox="true"
     showguides="true"
     inkscape:snap-bbox-midpoints="false"
     inkscape:snap-bbox-edge-midpoints="false"
     inkscape:snap-center="false"
     inkscape:snap-object-midpoints="true"
     inkscape:snap-smooth-nodes="false"
     inkscape:object-paths="false"
     inkscape:snap-intersection-paths="true"
     inkscape:snap-global="true"
     id="base"
     pagecolor="#ffffff"
     bordercolor="#666666"
     borderopacity="1.0"
     inkscape:pageopacity="0"
     inkscape:pageshadow="2"
     inkscape:zoom="0.93607333"
     inkscape:cx="331.2533"
     inkscape:cy="548.56495"
     inkscape:document-units="mm"
     inkscape:current-layer="layer2"
     inkscape:document-rotation="0"
     showgrid="false"
     showborder="false"
     inkscape:snap-nodes="true"
     inkscape:snap-others="true"
     inkscape:window-width="2400"
     inkscape:window-height="1271"
     inkscape:window-x="-9"
     inkscape:window-y="-9"
     inkscape:window-maximized="1"
     inkscape:snap-bbox="true"
     inkscape:bbox-paths="true"
     inkscape:bbox-nodes="true"
     inkscape:snap-page="true"
     inkscape:object-nodes="true"
     inkscape:snap-to-guides="true"
     inkscape:snap-grids="true" />
  <metadata
     id="metadata5">
    <rdf:RDF>
      <cc:Work
         rdf:about="">
        <dc:format>image/svg+xml</dc:format>
        <dc:type
           rdf:resource="http://purl.org/dc/dcmitype/StillImage" />
        <dc:title></dc:title>
      </cc:Work>
    </rdf:RDF>
  </metadata>
  <g
     sodipodi:insensitive="true"
     inkscape:label="Imagem"
     inkscape:groupmode="layer"
     id="layer1"
     style="display:none">
    <image
       sodipodi:absref="C:\Users\felip\Documents\Alura\cursos\1859 - inkscape\rascunhos logo\Estudo 4.jpg"
       xlink:href="../../../rascunhos%20logo/Estudo%204.jpg"
       y="-10.409837"
       x="13.365511"
       width="209.84756"
       height="297"
       preserveAspectRatio="none"
       id="image2413"
       transform="rotate(5.3402593)"
       clip-path="url(#clipPath856)" />
  </g>
  <g
     inkscape:groupmode="layer"
     id="layer2"
     inkscape:label="Vetor"
     style="display:inline">
    <g
       id="g4533"
       transform="translate(0,5.8178769)">
      <path
         sodipodi:nodetypes="ccccc"
         d="m 60.1631,106.01865 v 20.97556 a 2.7494011,2.7494011 120.00207 0 1 -1.374873,2.38115 l -16.793701,9.69423 a 2.7500899,2.7500899 6.3468172e-7 0 1 -2.749746,0 l -16.7937,-9.69423 a 2.7494011,2.7494011 59.997929 0 1 -1.374873,-2.38115 v -20.97556"
         inkscape:transform-center-y="-2.5028382e-06"
         inkscape:transform-center-x="9.6717903e-06"
         style="fill:none;stroke:#ff0000;stroke-width:2.5;stroke-linecap:square;stroke-linejoin:round;stroke-miterlimit:4;stroke-dasharray:none;stroke-opacity:1"
         id="path862"
         inkscape:path-effect="#path-effect873"
         inkscape:original-d="m 60.1631,106.01865 v 22.56306 L 40.619653,139.86324 21.076207,128.58171 v -22.56306" />
      <path
         id="path858"
         style="fill:none;stroke:#ff0000;stroke-width:2.5;stroke-linecap:square;stroke-linejoin:round;stroke-miterlimit:4;stroke-dasharray:none;stroke-opacity:1"
         inkscape:transform-center-x="9.6717903e-06"
         inkscape:transform-center-y="-2.5028382e-06"
         d="m 58.788227,118.19373 -16.793701,9.69423 a 2.7500899,2.7500899 6.3468144e-7 0 1 -2.749746,0 l -16.7937,-9.69423 a 2.7494011,2.7494011 59.997929 0 1 -1.374873,-2.38115 l 0,-19.388058 a 2.7494011,2.7494011 120.00207 0 1 1.374873,-2.381151 l 16.7937,-9.694228 a 2.7500899,2.7500899 180 0 1 2.749746,0 l 16.793701,9.694228 a 2.7494011,2.7494011 59.997928 0 1 1.374873,2.381151 v 19.388058 a 2.7494011,2.7494011 120.00207 0 1 -1.374873,2.38115 z"
         inkscape:path-effect="#path-effect869"
         inkscape:original-d="M 60.1631,117.40008 40.619653,128.68161 21.076207,117.40008 V 94.837022 L 40.619653,83.555492 60.1631,94.837022 Z" />
      <path
         sodipodi:nodetypes="ccccc"
         d="m 30.948891,145.44409 v -23.54416 l 9.670766,-5.58804 9.670766,5.58804 v 23.54416"
         inkscape:transform-center-x="4.5623422e-06"
         style="fill:none;stroke:#ff0000;stroke-width:2.5;stroke-linecap:round;stroke-linejoin:round;stroke-miterlimit:4;stroke-dasharray:none;stroke-opacity:1"
         id="path860" />
      <path
         sodipodi:nodetypes="cc"
         id="path866"
         d="m 40.619651,128.64682 v 41.23114"
         style="fill:none;stroke:#ff0000;stroke-width:2.5;stroke-linecap:round;stroke-linejoin:miter;stroke-miterlimit:4;stroke-dasharray:none;stroke-opacity:1" />
      <path
         id="path872"
         style="fill:none;stroke:#ff0000;stroke-width:2.5;stroke-linecap:square;stroke-linejoin:round;stroke-miterlimit:4;stroke-dasharray:none;stroke-opacity:1"
         inkscape:transform-center-x="9.6717903e-06"
         inkscape:transform-center-y="-2.5028382e-06"
         d="m 60.163101,117.18199 v 20.97556 a 2.7494008,2.7494008 120.00207 0 1 -1.374873,2.38115 l -16.793704,9.69423 a 2.7500897,2.7500897 6.3468157e-6 0 1 -2.749746,0 L 22.451084,140.5387 a 2.7494016,2.7494016 59.997933 0 1 -1.374873,-2.38115 v -20.97556"
         sodipodi:nodetypes="ccccc"
         inkscape:path-effect="#path-effect871"
         inkscape:original-d="m 60.163101,117.18199 v 22.56306 l -19.54345,11.28153 -19.54344,-11.28153 v -22.56306" />
      <path
         style="fill:none;stroke:#ff0000;stroke-width:2.5;stroke-linecap:round;stroke-linejoin:round;stroke-miterlimit:4;stroke-dasharray:none;stroke-opacity:1"
         d="m 21.076201,67.53137 v 19.03807 l 19.54345,-11.281529 19.54344,11.28153 V 67.53137"
         id="path1450"
         sodipodi:nodetypes="ccccc" />
      <path
         style="fill:none;stroke:#ff0000;stroke-width:2.5;stroke-linecap:round;stroke-linejoin:miter;stroke-miterlimit:4;stroke-dasharray:none;stroke-opacity:1"
         d="m 40.619651,56.249841 v 19.03807"
         id="path1454" />
      <path
         style="fill:none;stroke:#ff0000;stroke-width:2.5;stroke-linecap:round;stroke-linejoin:miter;stroke-miterlimit:4;stroke-dasharray:none;stroke-opacity:1"
         d="m 31.278941,80.545756 v -9.69347"
         id="path1456" />
      <path
         id="path1458"
         d="m 49.728021,80.545756 v -9.69347"
         style="fill:none;stroke:#ff0000;stroke-width:2.5;stroke-linecap:round;stroke-linejoin:miter;stroke-miterlimit:4;stroke-dasharray:none;stroke-opacity:1" />
      <circle
         style="fill:#ff0000;fill-opacity:1;stroke:#ff0000;stroke-width:0.999999;stroke-miterlimit:4;stroke-dasharray:none;stroke-opacity:1"
         id="path1460"
         cx="21.0762"
         cy="74.549545"
         r="2.980078" />
      <circle
         r="2.98"
         cy="62.195667"
         cx="40.619652"
         id="circle1462"
         style="fill:#ff0000;fill-opacity:1;stroke:#ff0000;stroke-width:1;stroke-miterlimit:4;stroke-dasharray:none;stroke-opacity:1" />
      <circle
         style="fill:#ff0000;fill-opacity:1;stroke:#ff0000;stroke-width:1;stroke-miterlimit:4;stroke-dasharray:none;stroke-opacity:1"
         id="circle1464"
         cx="60.16309"
         cy="74.549545"
         r="2.98" />
      <g
         id="g883"
         transform="translate(-84.666002)">
        <path
           id="path867"
           d="m 138.90148,98.113453 h -10.69279 v 12.116007 h -5.50928"
           style="fill:none;stroke:#ff0000;stroke-width:1.5;stroke-linecap:round;stroke-linejoin:round;stroke-miterlimit:4;stroke-dasharray:none;stroke-opacity:1" />
        <path
           style="fill:none;stroke:#ff0000;stroke-width:1.5;stroke-linecap:round;stroke-linejoin:round;stroke-miterlimit:4;stroke-dasharray:none;stroke-opacity:1"
           d="m 130.90148,101.8726 3.89697,-0.88745 4.10303,0.93438"
           id="path885" />
        <path
           id="path887"
           d="m 113.01623,101.8726 3.89697,-0.88745 4.10303,0.93438"
           style="fill:none;stroke:#ff0000;stroke-width:1.5;stroke-linecap:round;stroke-linejoin:round;stroke-miterlimit:4;stroke-dasharray:none;stroke-opacity:1" />
        <path
           id="path854"
           d="m 111.66983,98.113453 h 10.69279"
           style="fill:none;stroke:#ff0000;stroke-width:1.5;stroke-linecap:round;stroke-linejoin:miter;stroke-miterlimit:4;stroke-dasharray:none;stroke-opacity:1" />
      </g>
      <path
         id="path856"
         d="m 37.433291,122.42661 h 6.37272"
         style="fill:none;stroke:#ff0000;stroke-width:1.5;stroke-linecap:round;stroke-linejoin:miter;stroke-miterlimit:4;stroke-dasharray:none;stroke-opacity:1" />
    </g>
    <g
       style="fill:#000000"
       id="g4513">
      <text
         xml:space="preserve"
         style="font-size:35.5261px;line-height:1.25;font-family:'Abril Fatface';-inkscape-font-specification:'Abril Fatface';stroke-width:0.264584;fill:#000000"
         x="80.03447"
         y="127.72017"
         id="text5666"><tspan
           sodipodi:role="line"
           id="tspan5664"
           x="80.03447"
           y="127.72017"
           style="stroke-width:0.264584;fill:#000000">Baking</tspan></text>
      <text
         xml:space="preserve"
         style="font-size:7.91207px;line-height:1.25;font-family:'Abril Fatface';-inkscape-font-specification:'Abril Fatface';stroke-width:0.25301;fill:#000000"
         x="82.362129"
         y="136.62466"
         id="text5674"><tspan
           sodipodi:role="line"
           id="tspan5672"
           x="82.362129"
           y="136.62466"
           style="font-style:normal;font-variant:normal;font-weight:300;font-stretch:normal;font-size:7.91207px;font-family:Nunito;-inkscape-font-specification:'Nunito Light';stroke-width:0.25301;fill:#000000">PADARIA E CONFEITARIA</tspan></text>
    </g>
    <text
       xml:space="preserve"
       style="font-size:35.5261px;line-height:1.25;font-family:'Abril Fatface';-inkscape-font-specification:'Abril Fatface';stroke-width:0.264584"
       x="80.221115"
       y="216.39676"
       id="text4537"><tspan
         sodipodi:role="line"
         id="tspan4535"
         x="80.221115"
         y="216.39676"
         style="stroke-width:0.264584">B</tspan></text>
    <g
       aria-label="CONFEITARIA"
       id="text4541"
       style="font-size:5.64444px;line-height:1.25;font-family:'Abril Fatface';-inkscape-font-specification:'Abril Fatface';letter-spacing:0.396875px;stroke-width:0.25301"
       transform="translate(-110.91881,2.7930992)">
      <path
         d="m 186.53556,217.50719 q -0.35241,-0.42636 -0.42784,-0.89859 -0.0675,-0.47148 0.14467,-0.93243 0.2201,-0.4602 0.70303,-0.85936 0.48292,-0.39916 0.97197,-0.52512 0.49265,-0.1216 0.93864,0.037 0.45394,0.15937 0.80636,0.58573 0.24093,0.2915 0.35663,0.63525 0.12364,0.3445 0.0919,0.67826 -0.006,0.10766 -0.0758,0.16519 -0.0479,0.0396 -0.10783,0.0379 -0.0564,0.003 -0.0851,-0.0321 -0.036,-0.0435 -0.0392,-0.13602 -0.003,-0.39316 -0.087,-0.64573 -0.0843,-0.25256 -0.29643,-0.50925 -0.43512,-0.52642 -1.0241,-0.53023 -0.5854,5.4e-4 -1.21624,0.52196 -0.6352,0.52502 -0.74591,1.09985 -0.10712,0.57918 0.328,1.10561 0.21217,0.25668 0.44436,0.38698 0.23218,0.1303 0.6178,0.20701 0.0975,0.0293 0.12622,0.0641 0.0288,0.0348 0.0155,0.0897 -0.01,0.0592 -0.0575,0.0988 -0.0696,0.0575 -0.17651,0.0434 -0.33376,-0.0317 -0.65318,-0.21437 -0.31148,-0.18193 -0.55242,-0.47342 z"
         style="font-style:normal;font-variant:normal;font-weight:300;font-stretch:normal;font-size:5.64444px;font-family:Nunito;-inkscape-font-specification:'Nunito Light';text-align:center;text-anchor:middle;fill:#ff0000;stroke-width:0.25301"
         id="path4572" />
      <path
         d="m 189.51151,220.38013 q -0.42487,-0.3363 -0.58847,-0.77533 -0.1601,-0.44346 -0.0445,-0.93507 0.11907,-0.49604 0.50442,-0.98288 0.38884,-0.49126 0.84078,-0.71663 0.45544,-0.2298 0.91588,-0.17489 0.46837,0.054 0.89767,0.39379 0.4293,0.3398 0.5894,0.78326 0.1636,0.43903 0.048,0.93064 -0.11557,0.49161 -0.50442,0.98288 -0.38884,0.49126 -0.84428,0.72106 -0.45194,0.22537 -0.92031,0.17138 -0.46486,-0.0584 -0.89417,-0.39821 z m 0.19268,-0.24342 q 0.52667,0.41687 1.09902,0.29401 0.57235,-0.12285 1.08381,-0.76902 0.51146,-0.64617 0.4961,-1.22702 -0.007,-0.58176 -0.53852,-1.00214 -0.52667,-0.41687 -1.09903,-0.29401 -0.56792,0.12636 -1.07588,0.7681 -0.50795,0.64174 -0.50403,1.22794 0.0119,0.58527 0.53853,1.00214 z"
         style="font-style:normal;font-variant:normal;font-weight:300;font-stretch:normal;font-size:5.64444px;font-family:Nunito;-inkscape-font-specification:'Nunito Light';text-align:center;text-anchor:middle;fill:#ff0000;stroke-width:0.25301"
         id="path4574" />
      <path
         d="m 196.44086,219.78556 q 0.0712,0.0343 0.0847,0.0972 0.0211,0.0603 -0.0157,0.13656 l -1.5949,3.31035 q -0.0343,0.0712 -0.097,0.0974 -0.0627,0.0262 -0.13392,-0.008 -0.0763,-0.0368 -0.10055,-0.14243 l -0.77933,-4.07832 -1.40626,2.91881 q -0.0343,0.0712 -0.097,0.0973 -0.0627,0.0262 -0.12884,-0.006 -0.0763,-0.0368 -0.0923,-0.0946 -0.0136,-0.0629 0.0232,-0.13919 l 1.59491,-3.31036 q 0.0343,-0.0712 0.097,-0.0974 0.0678,-0.0237 0.14409,0.013 0.0814,0.0392 0.0955,0.13998 l 0.7767,4.07078 1.40381,-2.91372 q 0.0343,-0.0712 0.097,-0.0974 0.0627,-0.0262 0.12883,0.006 z"
         style="font-style:normal;font-variant:normal;font-weight:300;font-stretch:normal;font-size:5.64444px;font-family:Nunito;-inkscape-font-specification:'Nunito Light';text-align:center;text-anchor:middle;fill:#ff0000;stroke-width:0.25301"
         id="path4576" />
      <path
         d="m 196.36741,223.98342 q -0.0765,-0.0199 -0.11282,-0.0819 -0.0309,-0.0605 -0.011,-0.13701 l 0.92046,-3.53405 q 0.0185,-0.071 0.0805,-0.10737 0.0674,-0.0349 0.1439,-0.015 l 2.02101,0.52638 q 0.071,0.0185 0.0993,0.0667 0.0337,0.0496 0.0152,0.12063 -0.0185,0.071 -0.0721,0.0979 -0.0468,0.0228 -0.11778,0.004 l -1.86261,-0.48513 -0.37985,1.45841 1.75337,0.45668 q 0.071,0.0185 0.0993,0.0667 0.0337,0.0496 0.0153,0.12062 -0.0185,0.071 -0.0722,0.0979 -0.0482,0.0283 -0.11921,0.01 l -1.75337,-0.45668 -0.43248,1.66051 q -0.0213,0.0819 -0.0778,0.11972 -0.0551,0.0323 -0.13701,0.011 z"
         style="font-style:normal;font-variant:normal;font-weight:300;font-stretch:normal;font-size:5.64444px;font-family:Nunito;-inkscape-font-specification:'Nunito Light';text-align:center;text-anchor:middle;fill:#ff0000;stroke-width:0.25301"
         id="path4578" />
      <path
         d="m 199.82237,224.69968 q -0.0788,-0.007 -0.13081,-0.0618 -0.0464,-0.0548 -0.0404,-0.12795 l 0.29983,-3.61697 q 0.006,-0.0731 0.0609,-0.11956 0.0604,-0.046 0.1392,-0.0394 l 2.13755,0.1772 q 0.0731,0.006 0.10924,0.0487 0.0417,0.0431 0.0357,0.11624 -0.006,0.0675 -0.0539,0.10314 -0.0426,0.0361 -0.11576,0.0301 l -1.98005,-0.16414 -0.12451,1.50192 1.86755,0.15481 q 0.0731,0.006 0.10924,0.0487 0.0417,0.0431 0.0357,0.11624 -0.006,0.0731 -0.0543,0.10877 -0.0426,0.0361 -0.11577,0.03 l -1.86755,-0.15481 -0.12963,1.56379 1.98005,0.16414 q 0.0731,0.006 0.10924,0.0487 0.0422,0.0375 0.0361,0.11061 -0.006,0.0731 -0.0543,0.10877 -0.0426,0.0361 -0.11576,0.03 z"
         style="font-style:normal;font-variant:normal;font-weight:300;font-stretch:normal;font-size:5.64444px;font-family:Nunito;-inkscape-font-specification:'Nunito Light';text-align:center;text-anchor:middle;fill:#ff0000;stroke-width:0.25301"
         id="path4580" />
      <path
         d="m 203.4675,224.85465 q -0.0789,0.004 -0.13201,-0.0448 -0.0474,-0.0487 -0.051,-0.12762 l -0.16793,-3.67069 q -0.004,-0.0789 0.0392,-0.13175 0.0484,-0.0531 0.12737,-0.0567 0.0789,-0.004 0.12637,0.0451 0.0531,0.0484 0.0567,0.12736 l 0.16793,3.6707 q 0.004,0.0789 -0.0448,0.132 -0.0428,0.0528 -0.12173,0.0564 z"
         style="font-style:normal;font-variant:normal;font-weight:300;font-stretch:normal;font-size:5.64444px;font-family:Nunito;-inkscape-font-specification:'Nunito Light';text-align:center;text-anchor:middle;fill:#ff0000;stroke-width:0.25301"
         id="path4582" />
      <path
         d="m 206.20364,224.55048 q -0.0779,0.0131 -0.13087,-0.0296 -0.0529,-0.0426 -0.066,-0.12056 l -0.58265,-3.47361 -1.2859,0.21569 q -0.0724,0.0121 -0.12343,-0.0194 -0.0455,-0.0324 -0.0576,-0.1048 -0.0121,-0.0724 0.0203,-0.11787 0.038,-0.0464 0.11036,-0.0586 l 2.9058,-0.4874 q 0.0668,-0.0112 0.11881,0.0259 0.0511,0.0315 0.0623,0.0983 0.0112,0.0668 -0.0259,0.1188 -0.038,0.0464 -0.10479,0.0576 l -1.28034,0.21476 0.58264,3.4736 q 0.0131,0.0779 -0.0286,0.13644 -0.0361,0.0576 -0.11406,0.0706 z"
         style="font-style:normal;font-variant:normal;font-weight:300;font-stretch:normal;font-size:5.64444px;font-family:Nunito;-inkscape-font-specification:'Nunito Light';text-align:center;text-anchor:middle;fill:#ff0000;stroke-width:0.25301"
         id="path4584" />
      <path
         d="m 211.36562,222.76164 q 0.0276,0.0259 0.0393,0.0577 0.0215,0.0583 -0.0106,0.11819 -0.034,0.0546 -0.0976,0.078 -0.0424,0.0156 -0.0945,0.005 -0.0468,-0.0128 -0.0856,-0.0527 l -0.74177,-0.77355 -2.05529,0.75636 -0.0687,1.0718 q -0.0106,0.11819 -0.11128,0.15523 -0.0636,0.0234 -0.12488,0.004 -0.058,-0.0268 -0.0814,-0.0904 -0.0136,-0.0371 -0.0109,-0.0622 l 0.26797,-4.04414 q 0.005,-0.13408 0.13192,-0.18086 0.0583,-0.0215 0.11764,-0.007 0.0647,0.0123 0.10535,0.0575 z m -3.0295,-0.14215 1.80632,-0.66474 -1.65492,-1.7186 z"
         style="font-style:normal;font-variant:normal;font-weight:300;font-stretch:normal;font-size:5.64444px;font-family:Nunito;-inkscape-font-specification:'Nunito Light';text-align:center;text-anchor:middle;fill:#ff0000;stroke-width:0.25301"
         id="path4586" />
      <path
         d="m 214.82281,220.63921 q 0.0557,0.025 0.0798,0.0632 0.0331,0.0525 0.0142,0.11782 -0.0172,0.0575 -0.0697,0.0906 -0.0812,0.0511 -0.17709,0.005 l -1.29441,-0.62576 q -0.27686,-0.13251 -0.47606,-0.12049 -0.19442,0.009 -0.45236,0.17141 l -0.65439,0.412 0.83903,1.33267 q 0.0451,0.0716 0.0292,0.1417 -0.0142,0.0623 -0.081,0.10438 -0.0669,0.0421 -0.13392,0.031 -0.0653,-0.0189 -0.11039,-0.0906 l -1.94571,-3.09046 q -0.0391,-0.0621 -0.0232,-0.13215 0.0207,-0.0731 0.0876,-0.11516 l 1.18937,-0.74882 q 0.5302,-0.33381 0.97017,-0.27064 0.43696,0.0584 0.72867,0.52172 0.25562,0.40602 0.16238,0.79822 -0.0932,0.3922 -0.51341,0.71009 0.1387,-0.034 0.29137,-0.003 0.14966,0.0258 0.34921,0.12031 z m -2.15772,-0.78925 q 0.83113,-0.52326 0.38304,-1.23498 -0.21953,-0.34869 -0.53018,-0.38656 -0.31366,-0.0426 -0.734,0.222 l -1.03652,0.65258 0.88113,1.39955 z"
         style="font-style:normal;font-variant:normal;font-weight:300;font-stretch:normal;font-size:5.64444px;font-family:Nunito;-inkscape-font-specification:'Nunito Light';text-align:center;text-anchor:middle;fill:#ff0000;stroke-width:0.25301"
         id="path4588" />
      <path
         d="m 216.05112,219.89036 q -0.0601,0.0513 -0.13177,0.0455 -0.0673,-0.009 -0.11856,-0.0695 l -2.38281,-2.7972 q -0.0513,-0.0602 -0.0498,-0.12811 0.006,-0.0716 0.0659,-0.12286 0.0602,-0.0512 0.12747,-0.0419 0.0716,0.006 0.12286,0.0659 l 2.38281,2.79721 q 0.0512,0.0602 0.0455,0.13177 -0.001,0.0679 -0.0616,0.11919 z"
         style="font-style:normal;font-variant:normal;font-weight:300;font-stretch:normal;font-size:5.64444px;font-family:Nunito;-inkscape-font-specification:'Nunito Light';text-align:center;text-anchor:middle;fill:#ff0000;stroke-width:0.25301"
         id="path4590" />
      <path
         d="m 219.3128,216.1729 q 0.0367,0.009 0.0622,0.0317 0.0468,0.0408 0.0475,0.10875 -0.004,0.0643 -0.0481,0.11532 -0.0297,0.0341 -0.0806,0.0496 -0.0472,0.0113 -0.10037,-0.005 l -1.02229,-0.32174 -1.43866,1.65122 0.45499,0.97287 q 0.0475,0.10875 -0.023,0.18961 -0.0445,0.0511 -0.10765,0.0634 -0.0637,0.004 -0.11478,-0.0401 -0.0298,-0.0259 -0.0394,-0.0493 l -1.70905,-3.67505 q -0.0603,-0.11987 0.0287,-0.22201 0.0408,-0.0468 0.0997,-0.0629 0.0626,-0.0203 0.12001,-2.5e-4 z m -2.72485,1.33164 1.26439,-1.45121 -2.27731,-0.71148 z"
         style="font-style:normal;font-variant:normal;font-weight:300;font-stretch:normal;font-size:5.64444px;font-family:Nunito;-inkscape-font-specification:'Nunito Light';text-align:center;text-anchor:middle;fill:#ff0000;stroke-width:0.25301"
         id="path4592" />
    </g>
    <g
       aria-label="PADARIA"
       id="text4551"
       style="font-size:5.64444px;line-height:1.25;font-family:'Abril Fatface';-inkscape-font-specification:'Abril Fatface';stroke-width:0.25301"
       transform="translate(-53.239663,1.1772643)">
      <path
         d="m 134.64359,186.23965 q -0.0688,0.0389 -0.13523,0.0246 -0.0643,-0.022 -0.10599,-0.0957 l -1.79759,-3.1789 q -0.0361,-0.0639 -0.0169,-0.1331 0.0241,-0.072 0.0929,-0.1109 l 1.14971,-0.65014 q 0.54046,-0.30561 0.98251,-0.21191 0.44696,0.0909 0.71646,0.56751 0.27228,0.48151 0.1226,0.9163 -0.15246,0.42989 -0.68801,0.73273 l -1.00722,0.56956 0.75015,1.32659 q 0.0417,0.0737 0.0225,0.14292 -0.0171,0.0615 -0.0859,0.10043 z m 0.15357,-2.38879 q 0.85,-0.48066 0.42769,-1.22748 -0.41675,-0.73699 -1.26675,-0.25634 l -0.98758,0.55845 0.83907,1.48382 z"
         style="font-style:normal;font-variant:normal;font-weight:300;font-stretch:normal;font-size:5.64444px;font-family:Nunito;-inkscape-font-specification:'Nunito Light';text-align:center;text-anchor:middle;fill:#ff0000;stroke-width:0.25301"
         id="path4595" />
      <path
         d="m 140.37864,183.48109 q 0.0273,0.0263 0.0386,0.0582 0.0207,0.0585 -0.0121,0.11805 -0.0347,0.0542 -0.0986,0.0768 -0.0426,0.0151 -0.0946,0.004 -0.0467,-0.0134 -0.0849,-0.0538 l -0.73206,-0.78275 -2.06457,0.73064 -0.0821,1.07086 q -0.0121,0.11805 -0.11322,0.15383 -0.0639,0.0226 -0.12492,0.002 -0.0576,-0.0275 -0.0802,-0.0914 -0.0132,-0.0373 -0.0101,-0.0623 l 0.31844,-4.04048 q 0.006,-0.13401 0.13417,-0.1792 0.0585,-0.0207 0.11772,-0.006 0.0645,0.0131 0.10463,0.0588 z m -3.02749,-0.17998 1.81448,-0.64213 -1.63333,-1.73913 z"
         style="font-style:normal;font-variant:normal;font-weight:300;font-stretch:normal;font-size:5.64444px;font-family:Nunito;-inkscape-font-specification:'Nunito Light';text-align:center;text-anchor:middle;fill:#ff0000;stroke-width:0.25301"
         id="path4597" />
      <path
         d="m 141.33634,183.48735 q -0.0782,0.0114 -0.14139,-0.0307 -0.0576,-0.0429 -0.0682,-0.11553 l -0.52482,-3.59123 q -0.0106,-0.0726 0.0323,-0.13022 0.0485,-0.0584 0.12669,-0.0699 l 1.08352,-0.15835 q 0.93271,-0.1363 1.51523,0.29767 0.58811,0.43315 0.72686,1.38262 0.13876,0.94947 -0.29998,1.53839 -0.43397,0.58252 -1.36669,0.71883 z m 1.02268,-0.45749 q 1.60851,-0.23507 1.36447,-1.90502 -0.24323,-1.66436 -1.85174,-1.42929 l -0.90479,0.13222 0.48727,3.33432 z"
         style="font-style:normal;font-variant:normal;font-weight:300;font-stretch:normal;font-size:5.64444px;font-family:Nunito;-inkscape-font-specification:'Nunito Light';text-align:center;text-anchor:middle;fill:#ff0000;stroke-width:0.25301"
         id="path4599" />
      <path
         d="m 148.52017,183.00053 q 0.0153,0.0346 0.0137,0.0685 -0.003,0.062 -0.0558,0.10473 -0.0526,0.0371 -0.12026,0.0339 -0.0451,-0.002 -0.0889,-0.0325 -0.0381,-0.0301 -0.0583,-0.0819 l -0.38215,-1.00128 -2.1876,-0.10337 -0.48049,0.96053 q -0.0558,0.10472 -0.16293,0.0997 -0.0677,-0.003 -0.11654,-0.0451 -0.043,-0.0472 -0.0398,-0.11489 0.002,-0.0395 0.0142,-0.0615 l 1.8211,-3.62084 q 0.0566,-0.12164 0.19192,-0.11524 0.062,0.003 0.11117,0.0392 0.0548,0.0365 0.0747,0.0939 z m -2.73521,-1.31024 1.92261,0.0908 -0.85538,-2.22725 z"
         style="font-style:normal;font-variant:normal;font-weight:300;font-stretch:normal;font-size:5.64444px;font-family:Nunito;-inkscape-font-specification:'Nunito Light';text-align:center;text-anchor:middle;fill:#ff0000;stroke-width:0.25301"
         id="path4601" />
      <path
         d="m 152.16336,183.8206 q 0.021,0.0573 0.0104,0.10122 -0.0145,0.0604 -0.0745,0.0924 -0.0531,0.0278 -0.11351,0.0133 -0.0933,-0.0225 -0.127,-0.1235 l -0.45516,-1.36379 q -0.0983,-0.29077 -0.24593,-0.42505 -0.14214,-0.13295 -0.43845,-0.20436 l -0.75177,-0.18117 -0.36895,1.53097 q -0.0198,0.0823 -0.0811,0.11979 -0.0545,0.0333 -0.1313,0.0148 -0.0768,-0.0185 -0.11563,-0.0743 -0.032,-0.06 -0.0122,-0.14228 l 0.85559,-3.55031 q 0.0172,-0.0713 0.0785,-0.10882 0.0668,-0.0362 0.14359,-0.0177 l 1.36635,0.32928 q 0.6091,0.14678 0.8709,0.50598 0.26312,0.35371 0.13484,0.88598 -0.1124,0.46643 -0.45837,0.67335 -0.34598,0.20693 -0.86688,0.12784 0.12112,0.0756 0.20574,0.20635 0.0859,0.12522 0.15754,0.33407 z m -0.94054,-2.0962 q 0.9548,0.2301 1.15184,-0.58752 0.0965,-0.40058 -0.0931,-0.6495 -0.18835,-0.2544 -0.67123,-0.37077 l -1.19076,-0.28696 -0.38746,1.60779 z"
         style="font-style:normal;font-variant:normal;font-weight:300;font-stretch:normal;font-size:5.64444px;font-family:Nunito;-inkscape-font-specification:'Nunito Light';text-align:center;text-anchor:middle;fill:#ff0000;stroke-width:0.25301"
         id="path4603" />
      <path
         d="m 153.0779,184.45362 q -0.0739,-0.028 -0.10338,-0.0935 -0.0242,-0.0635 0.004,-0.1374 l 1.303,-3.43575 q 0.028,-0.0739 0.0882,-0.10538 0.0655,-0.0295 0.1394,-0.001 0.0739,0.028 0.0981,0.0915 0.0295,0.0655 10e-4,0.1394 l -1.303,3.43575 q -0.028,0.0739 -0.0935,0.10337 -0.0602,0.0315 -0.13412,0.003 z"
         style="font-style:normal;font-variant:normal;font-weight:300;font-stretch:normal;font-size:5.64444px;font-family:Nunito;-inkscape-font-specification:'Nunito Light';text-align:center;text-anchor:middle;fill:#ff0000;stroke-width:0.25301"
         id="path4605" />
      <path
         d="m 157.26586,186.26086 q -0.001,0.0378 -0.0172,0.0677 -0.0294,0.0547 -0.0955,0.0704 -0.0635,0.0107 -0.12311,-0.0214 -0.0398,-0.0214 -0.0662,-0.0676 -0.0214,-0.0436 -0.0172,-0.099 l 0.0874,-1.06816 -1.92877,-1.03738 -0.84798,0.65909 q -0.0955,0.0704 -0.18999,0.0196 -0.0596,-0.0321 -0.0857,-0.091 -0.0184,-0.0611 0.0137,-0.12081 0.0187,-0.0348 0.0394,-0.0493 l 3.20546,-2.4803 q 0.10356,-0.0853 0.22287,-0.0211 0.0547,0.0294 0.0834,0.0833 0.0337,0.0566 0.0268,0.11697 z m -1.90188,-2.36241 1.69513,0.91172 0.18963,-2.37832 z"
         style="font-style:normal;font-variant:normal;font-weight:300;font-stretch:normal;font-size:5.64444px;font-family:Nunito;-inkscape-font-specification:'Nunito Light';text-align:center;text-anchor:middle;fill:#ff0000;stroke-width:0.25301"
         id="path4607" />
    </g>
    <path
       id="path4553"
       style="fill:none;stroke:#000000;stroke-width:1.5;stroke-miterlimit:9;stroke-dasharray:none"
       d="m 105.09666,187.82389 c 4.65729,3.83057 7.62742,9.6378 7.62742,16.13874 0,5.05679 -1.7971,9.69385 -4.78748,13.30736 m -32.447196,-0.30834 c -2.840083,-3.5672 -4.53719,-8.08492 -4.537189,-12.99902 2e-6,-6.85087 3.298479,-12.93134 8.393954,-16.73993"
       sodipodi:nodetypes="csccsc" />
    <rect
       y="68.967171"
       x="-82.251831"
       height="43.811111"
       width="43.811111"
       id="rect2202"
       style="fill:#553388;fill-opacity:1;stroke:none;stroke-width:2" />
    <rect
       style="fill:#edc151;fill-opacity:1;stroke:none;stroke-width:2"
       id="rect2204"
       width="43.811111"
       height="43.811111"
       x="-82.251831"
       y="112.77828" />
    <rect
       y="178.49495"
       x="-82.251831"
       height="21.905556"
       width="21.905556"
       id="rect2206"
       style="fill:#f7e948;fill-opacity:1;stroke:none;stroke-width:2" />
    <rect
       style="fill:#f79d48;fill-opacity:1;stroke:none;stroke-width:2"
       id="rect2208"
       width="21.905556"
       height="21.905556"
       x="-60.346287"
       y="178.49495" />
    <rect
       style="fill:#8e2f94;fill-opacity:1;stroke:none;stroke-width:2"
       id="rect2210"
       width="21.905556"
       height="21.905556"
       x="-82.251831"
       y="156.58939" />
    <rect
       y="156.58939"
       x="-60.346287"
       height="21.905556"
       width="21.905556"
       id="rect2212"
       style="fill:#2f3d94;fill-opacity:1;stroke:none;stroke-width:2" />
  </g>
</svg>
