<?xml version="1.0" encoding="UTF-8" standalone="no"?>
<!-- Created with Inkscape (http://www.inkscape.org/) -->

<svg
   version="1.1"
   id="svg1"
   width="177.72853"
   height="116.62695"
   viewBox="0 0 177.72853 116.62695"
   sodipodi:docname="Baking-Padaria-Confeitaria-versao-editavel.svg"
   inkscape:version="1.4 (86a8ad7, 2024-10-11)"
   xml:space="preserve"
   inkscape:export-filename="C:\Users\Windows\Documents\Projetos-em-andamento\Designer-UI\imagens-prontas-projeto\inkscape\Baking-Padaria-Confeitaria-projeto-completo.png"
   inkscape:export-xdpi="96"
   inkscape:export-ydpi="96"
   xmlns:inkscape="http://www.inkscape.org/namespaces/inkscape"
   xmlns:sodipodi="http://sodipodi.sourceforge.net/DTD/sodipodi-0.dtd"
   xmlns:xlink="http://www.w3.org/1999/xlink"
   xmlns="http://www.w3.org/2000/svg"
   xmlns:svg="http://www.w3.org/2000/svg"><sodipodi:namedview
     id="namedview1"
     pagecolor="#ffffff"
     bordercolor="#000000"
     borderopacity="0.25"
     inkscape:showpageshadow="2"
     inkscape:pageopacity="0.0"
     inkscape:pagecheckerboard="0"
     inkscape:deskcolor="#d1d1d1"
     showguides="false"
     inkscape:zoom="2.64"
     inkscape:cx="-42.424242"
     inkscape:cy="689.58333"
     inkscape:window-width="1280"
     inkscape:window-height="961"
     inkscape:window-x="-8"
     inkscape:window-y="-8"
     inkscape:window-maximized="1"
     inkscape:current-layer="g233"
     showgrid="false"><inkscape:page
       x="0"
       y="0"
       width="177.72853"
       height="116.62695"
       id="page2"
       margin="0"
       bleed="0" /></sodipodi:namedview><defs
     id="defs1" /><g
     inkscape:groupmode="layer"
     inkscape:label="Imagem-base"
     id="g1"
     sodipodi:insensitive="true"
     style="display:none"
     transform="translate(-13.119141,-268.79493)"><image
       width="100.17154"
       height="187.21198"
       preserveAspectRatio="none"
       xlink:href="../../Identidade-Visual-Softwares-Gratuitos/Inkscape/img/projeto-alura.PNG"
       id="image1"
       x="85.602516"
       y="95.345886" /></g><g
     inkscape:groupmode="layer"
     id="layer1"
     inkscape:label="Vetor"
     transform="translate(-13.119141,-268.79493)"><rect
       style="fill:#ffffff;fill-opacity:1;stroke:none;stroke-width:1.8;stroke-linecap:round;stroke-linejoin:round"
       id="rect240"
       width="258"
       height="134.56862"
       x="3.045248"
       y="259.82413" /><g
       id="g261"
       inkscape:export-filename="C:\Users\Windows\Documents\Projetos-em-andamento\Designer-UI\imagens-prontas-projeto\inkscape\logo.png"
       inkscape:export-xdpi="96"
       inkscape:export-ydpi="96"><path
         id="path244"
         style="display:inline;fill:#edc151;stroke-width:1.99879;stroke-linecap:round;stroke-linejoin:round"
         d="m 36.492188,268.79492 a 1.5,1.5 0 0 0 -1.5,1.5 v 2.55274 a 3.6390657,3.4200001 0 0 0 -2.138672,3.11328 3.6390657,3.4200001 0 0 0 2.138672,3.11523 v 8.90039 l -6.769532,3.85938 v -6.99219 a 1.5,1.5 0 0 0 -1.5,-1.5 1.5,1.5 0 0 0 -1.5,1.5 v 8.70313 l -6.767578,3.85937 v -7.86719 A 3.6390657,3.4200001 0 0 0 20.396484,286.51562 3.6390657,3.4200001 0 0 0 18.455078,283.5 v -2.06445 a 1.50015,1.50015 0 0 0 -3,0 v 1.89648 a 3.6390657,3.4200001 0 0 0 -2.335937,3.18359 3.6390657,3.4200001 0 0 0 2.335937,3.1836 v 10.28906 a 1.5,1.5 0 0 0 0.664063,1.1543 1.50015,1.50015 0 0 0 0.347656,0.14453 1.5,1.5 0 0 0 0.488281,0.20117 1.5,1.5 0 0 0 0.478516,-0.19922 1.50015,1.50015 0 0 0 0.263672,0.002 l 18.791015,-10.7168 18.792969,10.7793 a 1.50015,1.50015 0 0 0 2.246094,-1.30079 V 289.8477 a 3.6390657,3.4200001 0 0 0 2.138672,-3.11524 3.6390657,3.4200001 0 0 0 -2.138672,-3.11523 v -2.18164 a 1.5,1.5 0 0 0 -1.5,-1.5 1.5,1.5 0 0 0 -1.5,1.5 v 2.18164 a 3.6390657,3.4200001 0 0 0 -2.138672,3.11523 3.6390657,3.4200001 0 0 0 2.138672,3.11524 v 7.61328 l -6.767578,-3.88086 v -8.73633 a 1.5,1.5 0 0 0 -1.5,-1.5 1.5,1.5 0 0 0 -1.5,1.5 v 7.01367 l -6.767578,-3.88086 v -8.90039 a 3.6390657,3.4200001 0 0 0 2.138671,-3.11523 3.6390657,3.4200001 0 0 0 -2.138671,-3.11328 v -2.55274 a 1.5,1.5 0 0 0 -1.5,-1.5 z m -0.002,26.92969 c -0.678837,0 -1.356143,0.17526 -1.96289,0.52148 l -17.119141,9.76563 c -1.213493,0.69262 -1.96289,1.97997 -1.962891,3.36523 v 19.53907 10.72265 c 0,0.0191 0.0036,0.0376 0.0039,0.0566 v 11.02149 c 0,1.3894 0.752108,2.6789 1.964843,3.37109 l 17.119141,9.77149 c 0.149534,0.0853 0.301803,0.16034 0.458985,0.2246 v 19.8379 a 1.5,1.5 0 0 0 1.5,1.5 1.5,1.5 0 0 0 1.5,-1.5 v -19.83985 c 0.156354,-0.064 0.310206,-0.13774 0.458984,-0.22265 l 17.11914,-9.77149 c 1.212736,-0.69219 1.962891,-1.98169 1.962891,-3.37109 v -11.04883 c 7.6e-5,-0.01 0.002,-0.0194 0.002,-0.0293 v -20.92187 -9.33985 c 0,-1.38526 -0.749398,-2.67261 -1.96289,-3.36523 l -17.115235,-9.76563 c -0.606747,-0.3463 -1.287961,-0.52148 -1.966797,-0.52148 z m 0,2.98047 c 0.156691,0 0.313007,0.04 0.455078,0.12109 l 17.119141,9.77149 c 0.284145,0.16217 0.455078,0.45491 0.455078,0.77929 v 19.53907 c 0,0.32435 -0.170939,0.61906 -0.455078,0.78125 l -6.958984,3.9707 a 1.5067946,1.4935348 0 0 0 -0.361328,-0.28906 l -9.5,-5.4375 a 1.5067946,1.4935348 0 0 0 -1.50586,0 l -9.498047,5.4375 a 1.5067946,1.4935348 0 0 0 -0.355468,0.29297 l -6.964844,-3.97461 c -0.284143,-0.16217 -0.455078,-0.4569 -0.455078,-0.78125 v -10.19922 -9.33985 c 0,-0.32438 0.170941,-0.61712 0.455078,-0.77929 l 17.115234,-9.77149 c 0.142072,-0.0811 0.298387,-0.12109 0.455078,-0.12109 z m -14.505859,11.83594 a 0.75,0.75 0 0 0 -0.75,0.75 0.75,0.75 0 0 0 0.75,0.75 h 10.291016 a 0.75,0.75 0 0 0 0.75,-0.75 0.75,0.75 0 0 0 -0.75,-0.75 z m 17.117187,0.38867 a 0.750075,0.750075 0 0 0 -0.75,0.75 v 10.41992 l -5.009765,-0.13672 a 0.75,0.75 0 0 0 -0.771485,0.72852 0.75,0.75 0 0 0 0.730469,0.76953 l 5.78125,0.16015 a 0.750075,0.750075 0 0 0 0.769531,-0.75 v -10.4414 h 8.886719 a 0.75,0.75 0 0 0 0.75,-0.75 0.75,0.75 0 0 0 -0.75,-0.75 z m -12.132812,2.98633 a 0.750075,0.750075 0 0 0 -0.150391,0.0312 l -3.265625,1.04687 a 0.75,0.75 0 0 0 -0.484375,0.94336 0.75,0.75 0 0 0 0.94336,0.48438 l 3.035156,-0.97266 3.201172,1.02734 a 0.75,0.75 0 0 0 0.943359,-0.48633 0.75,0.75 0 0 0 -0.484375,-0.94335 l -3.43164,-1.09961 a 0.750075,0.750075 0 0 0 -0.306641,-0.0312 z m 17.628906,0 a 0.750075,0.750075 0 0 0 -0.15039,0.0312 l -3.263672,1.04687 a 0.75,0.75 0 0 0 -0.486328,0.94336 0.75,0.75 0 0 0 0.943359,0.48438 l 3.035156,-0.97266 3.203125,1.02734 a 0.75,0.75 0 0 0 0.94336,-0.48633 0.75,0.75 0 0 0 -0.486328,-0.94335 l -3.431641,-1.09961 a 0.750075,0.750075 0 0 0 -0.306641,-0.0312 z m -8.107422,17.04296 7.671875,4.38868 -7.216797,4.11914 c -0.284143,0.16217 -0.626012,0.16217 -0.910156,0 l -7.21289,-4.11719 z m 18.029297,1.92188 v 6.75781 c 0,0.32436 -0.170939,0.61711 -0.455078,0.7793 l -6.568359,3.74805 v -7.27735 z m -36.054687,0.002 7.021484,4.00586 v 7.27735 l -6.566406,-3.74805 c -0.284143,-0.16217 -0.455078,-0.45494 -0.455078,-0.7793 z m 14.423828,1.4668 a 0.75,0.75 0 0 0 -0.75,0.75 0.75,0.75 0 0 0 0.75,0.75 h 7.205078 a 0.75,0.75 0 0 0 0.75,-0.75 0.75,0.75 0 0 0 -0.75,-0.75 z m 11.595703,4.25781 v 7.27539 l -1.308594,0.74805 -5.183593,2.95898 v -7.31445 c 0.159046,-0.0648 0.313671,-0.14028 0.464843,-0.22656 z m -15.984375,0.002 6.027344,3.43945 c 0.151173,0.0863 0.305797,0.16178 0.464844,0.22656 v 7.31641 L 29.458984,346.43359 28.5,345.88477 Z m -10.041016,4.99023 7.033204,4.01562 V 355.25 l -6.578126,-3.75391 c -0.282602,-0.1613 -0.455078,-0.45552 -0.455078,-0.77929 z m 36.064454,0 v 7.11719 c 0,0.32377 -0.170523,0.61799 -0.453126,0.77929 L 47.490234,355.25 v -7.63672 z m -26.03125,5.73047 6.5,3.71875 v 7.62305 l -6.5,-3.70899 z m 15.998046,0 v 7.63281 l -6.498046,3.70703 v -7.62109 z" /><path
         d="m 74.719814,311.13731 h 10.611929 q 4.933305,0 7.382212,1.34867 2.484398,1.31319 2.484398,4.47192 0,4.86232 -5.856081,5.82059 v 0.071 q 7.09828,0.88729 7.09828,6.17551 0,3.86856 -2.910295,5.43018 -2.910295,1.52613 -8.375971,1.52613 H 74.719814 v -0.67433 h 2.306941 v -23.49531 h -2.306941 z m 9.227765,12.28003 v 11.88962 h 1.668096 q 1.952027,0 2.732838,-1.34868 0.78081,-1.34867 0.78081,-3.97503 v -1.88105 q 0,-2.34243 -0.958267,-3.51365 -0.958268,-1.17121 -3.407175,-1.17121 z m 0,-11.60569 V 322.743 h 0.922776 q 1.845553,0 2.555381,-1.10023 0.74532,-1.13573 0.74532,-3.44267 v -1.6681 q 0,-2.62636 -0.638846,-3.65561 -0.638845,-1.06474 -2.448906,-1.06474 z m 22.288611,15.82916 h 1.02925 v -2.73283 q 0,-3.37169 -0.3904,-4.50741 -0.35492,-1.17122 -1.41966,-1.17122 -0.63884,0 -1.17121,0.35492 -0.49688,0.31942 -0.49688,0.92277 0,0.56786 0.21294,1.17122 h 0.88729 q 0.28393,0.74532 0.28393,1.81006 0,1.02925 -0.88728,1.81006 -0.88729,0.74532 -2.23596,0.74532 -3.052263,0 -3.052263,-2.94579 0,-4.36544 7.417703,-4.36544 4.22348,0 5.82059,1.45515 1.6326,1.41966 1.6326,5.25273 v 7.20475 q 0,1.84555 1.02925,1.84555 1.20671,0 1.41966,-3.65561 l 0.53237,0.0355 q -0.14196,3.12324 -1.17121,4.29446 -1.02926,1.17122 -3.37169,1.17122 -4.25897,0 -4.89781,-2.62637 -0.46139,1.34868 -1.38417,1.98752 -0.92277,0.63885 -2.69734,0.63885 -5.25273,0 -5.25273,-4.29446 0,-2.51989 1.98752,-3.44267 2.02301,-0.95827 6.1755,-0.95827 z m -1.41965,4.36545 q 0,1.84555 0.17745,2.37792 0.21295,0.53237 0.74532,0.53237 0.56787,0 1.02925,-0.88728 0.49688,-0.92278 0.49688,-2.51989 v -3.3007 H 107.017 q -2.20046,0 -2.20046,3.22971 z m 23.99218,3.97503 v -0.63884 h 1.6326 l -4.01053,-8.23401 -0.67433,0.17746 v 8.05655 h 1.6326 v 0.63884 h -10.18603 v -0.63884 h 1.95203 v -25.34086 h -2.094 v -0.63885 h 8.6954 v 17.21333 l 0.56786,-0.21295 7.98556,-6.63689 h -3.33619 v -0.63884 h 6.99181 v 0.63884 h -2.4844 l -4.22348,3.58463 6.14002,12.03159 h 1.27769 v 0.63884 z m 15.61624,-19.34281 q -1.88104,0 -2.69734,-0.95827 -0.78081,-0.95827 -0.78081,-2.37792 0,-1.41966 0.85179,-2.34244 0.88729,-0.92277 2.66186,-0.92277 1.77457,0 2.69734,0.85179 0.92278,0.8163 0.92278,2.37793 0,1.52613 -0.88729,2.4489 -0.88728,0.92278 -2.76833,0.92278 z m -5.3592,2.44891 h 8.6954 v 16.25506 h 1.98751 v 0.63884 h -10.54094 v -0.63884 h 1.95202 v -15.61622 h -2.09399 z m 11.46371,0 h 8.55342 v 3.2652 q 0.56787,-1.6326 1.73908,-2.62636 1.17122,-0.99376 3.54914,-0.99376 5.50117,0 5.50117,5.92707 v 10.68291 h 1.98752 v 0.63884 h -10.04407 v -0.63884 h 1.45515 v -11.53471 q 0,-2.12948 -0.28393,-2.73284 -0.28393,-0.63884 -1.02925,-0.63884 -1.13573,0 -2.02301,1.49064 -0.8518,1.49064 -0.8518,3.62012 v 9.79563 h 1.52613 v 0.63884 h -10.07955 v -0.63884 h 1.95202 v -15.61622 h -1.95202 z m 36.02374,-1.84556 0.99376,-0.60335 q 0.21295,-1.10023 -0.85179,-1.10023 -1.52613,0 -1.52613,2.34243 0,0.92277 0.24844,2.12948 2.69735,1.81006 2.69735,4.64938 0,2.80382 -1.95203,4.36544 -1.95203,1.56162 -5.28822,1.56162 -1.38417,0 -2.8748,-0.28393 -1.56163,0.99376 -1.56163,1.49064 0,0.49688 2.27145,0.49688 h 3.62013 q 8.05655,0 8.05655,5.7851 0,3.12324 -2.44891,4.9333 -2.41342,1.84555 -7.55967,1.84555 -8.76638,0 -8.76638,-3.79758 0,-2.0585 2.73284,-2.83931 l 2.12949,0.95827 q -0.28394,1.02925 -0.28394,1.95203 0,3.05226 4.5429,3.05226 2.76833,0 4.25897,-1.02925 1.49064,-1.02925 1.49064,-2.55539 0,-1.52613 -0.92278,-2.0585 -0.88728,-0.49688 -3.58463,-0.49688 h -3.44266 q -2.87481,0 -4.11701,-0.95826 -1.24219,-0.95827 -1.24219,-2.34244 0,-1.41965 0.88728,-2.34243 0.88729,-0.95827 3.15874,-2.34243 -4.11701,-1.17122 -4.11701,-5.39469 0,-2.66186 1.91654,-4.29446 1.91653,-1.63261 5.74961,-1.63261 2.30694,0 3.93954,0.88729 -0.21295,-0.95827 -0.21295,-1.73908 0,-1.98752 1.06474,-2.87481 1.06475,-0.88728 2.37793,-0.88728 1.31318,0 2.09399,0.70983 0.8163,0.67433 0.8163,1.88104 0,1.20671 -0.63884,1.81006 -0.63885,0.56787 -1.56162,0.56787 -0.88729,0 -1.49064,-0.46139 -0.56786,-0.49688 -0.60336,-1.38417 z m -7.52417,6.63689 v 1.91654 q 0,2.37792 0.3904,3.22972 0.4259,0.85179 1.2422,0.85179 0.85179,0 1.20671,-0.8163 0.3904,-0.85179 0.3904,-3.44267 v -1.73908 q 0,-2.76832 -0.35491,-3.62012 -0.35491,-0.88728 -1.20671,-0.88728 -0.8163,0 -1.2422,0.92277 -0.42589,0.88729 -0.42589,3.58463 z"
         id="text259"
         style="font-size:35.4914px;font-family:'Abril Fatface';-inkscape-font-specification:'Abril Fatface';fill:#553388;stroke-width:1.5;stroke-linecap:round;stroke-linejoin:round"
         aria-label="Baking&#10;" /><path
         d="m 77.517467,345.09793 q -0.154491,0 -0.239461,-0.085 -0.07725,-0.0927 -0.07725,-0.24719 v -4.84329 q 0,-0.16222 0.08497,-0.23946 0.08497,-0.085 0.239461,-0.085 h 1.830718 q 0.872874,0 1.344072,0.43257 0.471197,0.42485 0.471197,1.20503 0,0.77246 -0.471197,1.20503 -0.471198,0.43258 -1.344072,0.43258 h -1.521736 v 1.89251 q 0,0.15449 -0.07725,0.24719 -0.07725,0.085 -0.239461,0.085 z m 0.316707,-2.75767 h 1.44449 q 0.625689,0 0.942395,-0.27808 0.324432,-0.28581 0.324432,-0.82653 0,-0.54844 -0.324432,-0.82653 -0.316706,-0.2858 -0.942395,-0.2858 h -1.44449 z m 3.58875,2.75767 q -0.123593,0 -0.200839,-0.0541 -0.06952,-0.0618 -0.08497,-0.15449 -0.0077,-0.10042 0.04635,-0.22401 l 2.124251,-4.83557 q 0.06952,-0.15449 0.162215,-0.21628 0.100419,-0.0695 0.216288,-0.0695 0.115868,0 0.208562,0.0695 0.10042,0.0618 0.162216,0.21628 l 2.131976,4.83557 q 0.0618,0.12359 0.04635,0.22401 -0.0077,0.10042 -0.07725,0.15449 -0.06952,0.0541 -0.193114,0.0541 -0.139042,0 -0.224012,-0.0695 -0.08497,-0.0772 -0.139042,-0.21628 l -0.571617,-1.3209 0.308982,0.16221 h -3.321556 l 0.316706,-0.16221 -0.563892,1.3209 q -0.06952,0.14676 -0.146766,0.21628 -0.07725,0.0695 -0.200838,0.0695 z m 2.255568,-4.75833 -1.243652,2.92761 -0.18539,-0.14677 h 2.858084 l -0.16994,0.14677 -1.243653,-2.92761 z m 3.839102,4.70425 q -0.16994,0 -0.262635,-0.085 -0.08497,-0.0927 -0.08497,-0.26263 v -4.7506 q 0,-0.16994 0.08497,-0.25491 0.0927,-0.0927 0.262635,-0.0927 h 1.490838 q 1.320898,0 2.039281,0.69521 0.718383,0.69521 0.718383,2.02383 0,0.66431 -0.185389,1.17413 -0.177664,0.50209 -0.532994,0.8497 -0.355329,0.3476 -0.865149,0.52527 -0.509821,0.17766 -1.174132,0.17766 z m 0.285808,-0.54071 h 1.158683 q 0.540718,0 0.93467,-0.13905 0.401677,-0.13904 0.664312,-0.4094 0.270359,-0.27036 0.401676,-0.67976 0.131318,-0.41712 0.131318,-0.95784 0,-1.08916 -0.532994,-1.62988 -0.532994,-0.54845 -1.598982,-0.54845 h -1.158683 z m 4.88694,0.59479 q -0.123593,0 -0.200838,-0.0541 -0.06952,-0.0618 -0.08497,-0.15449 -0.0077,-0.10042 0.04635,-0.22401 l 2.124251,-4.83557 q 0.06952,-0.15449 0.162216,-0.21628 0.100419,-0.0695 0.216287,-0.0695 0.115868,0 0.208563,0.0695 0.100419,0.0618 0.162215,0.21628 l 2.131976,4.83557 q 0.0618,0.12359 0.04635,0.22401 -0.0077,0.10042 -0.07725,0.15449 -0.06952,0.0541 -0.193114,0.0541 -0.139042,0 -0.224012,-0.0695 -0.08497,-0.0772 -0.139042,-0.21628 l -0.571616,-1.3209 0.308982,0.16221 h -3.321557 l 0.316707,-0.16221 -0.563892,1.3209 q -0.06952,0.14676 -0.146767,0.21628 -0.07725,0.0695 -0.200839,0.0695 z m 2.255568,-4.75833 -1.243652,2.92761 -0.185389,-0.14677 h 2.858083 l -0.16994,0.14677 -1.243652,-2.92761 z m 3.808206,4.75833 q -0.154491,0 -0.239461,-0.085 -0.07725,-0.0927 -0.07725,-0.24719 v -4.84329 q 0,-0.16222 0.08497,-0.23946 0.08497,-0.085 0.239461,-0.085 h 1.830724 q 0.87287,0 1.34407,0.4094 0.4712,0.4094 0.4712,1.1664 0,0.47893 -0.21629,0.83426 -0.20856,0.3476 -0.61796,0.53299 -0.4094,0.17766 -0.98102,0.17766 l 0.0772,-0.10041 h 0.15449 q 0.30126,0 0.52527,0.15449 0.22402,0.15449 0.40941,0.49437 l 0.74155,1.38269 q 0.0618,0.10815 0.0541,0.21629 0,0.10042 -0.0695,0.16994 -0.0695,0.0618 -0.20084,0.0618 -0.13131,0 -0.21628,-0.0618 -0.085,-0.0618 -0.14677,-0.17767 l -0.84197,-1.56035 q -0.17767,-0.33216 -0.40941,-0.4403 -0.23173,-0.11587 -0.61024,-0.11587 h -0.988742 v 2.02383 q 0,0.15449 -0.07725,0.24719 -0.07725,0.085 -0.239461,0.085 z m 0.316706,-2.85809 h 1.429038 q 0.63342,0 0.95785,-0.26263 0.32443,-0.27036 0.32443,-0.80336 0,-0.51754 -0.32443,-0.78018 -0.32443,-0.27035 -0.95785,-0.27035 h -1.429038 z m 4.851018,2.85809 q -0.15449,0 -0.23946,-0.085 -0.0772,-0.0927 -0.0772,-0.24719 v -4.88964 q 0,-0.16222 0.0772,-0.24719 0.085,-0.085 0.23946,-0.085 0.1545,0 0.23174,0.085 0.085,0.085 0.085,0.24719 v 4.88964 q 0,0.15449 -0.0772,0.24719 -0.0773,0.085 -0.23947,0.085 z m 1.55264,0 q -0.1236,0 -0.20084,-0.0541 -0.0695,-0.0618 -0.085,-0.15449 -0.008,-0.10042 0.0464,-0.22401 l 2.12425,-4.83557 q 0.0695,-0.15449 0.16221,-0.21628 0.10042,-0.0695 0.21629,-0.0695 0.11587,0 0.20856,0.0695 0.10042,0.0618 0.16222,0.21628 l 2.13197,4.83557 q 0.0618,0.12359 0.0463,0.22401 -0.008,0.10042 -0.0772,0.15449 -0.0695,0.0541 -0.19312,0.0541 -0.13904,0 -0.22401,-0.0695 -0.085,-0.0772 -0.13904,-0.21628 l -0.57162,-1.3209 0.30898,0.16221 h -3.32155 l 0.3167,-0.16221 -0.56389,1.3209 q -0.0695,0.14676 -0.14676,0.21628 -0.0772,0.0695 -0.20084,0.0695 z m 2.25557,-4.75833 -1.24366,2.92761 -0.18539,-0.14677 h 2.85809 l -0.16994,0.14677 -1.24365,-2.92761 z m 7.02933,4.77377 q -0.54072,0 -0.93467,-0.16994 -0.39395,-0.17766 -0.60251,-0.48664 -0.20084,-0.30898 -0.20084,-0.71839 0,-0.26263 0.0695,-0.47892 0.0695,-0.22401 0.20856,-0.41712 0.14677,-0.20084 0.36305,-0.38623 0.21629,-0.18539 0.5021,-0.3785 l 0.24719,-0.16222 -0.085,0.13132 q -0.37078,-0.40168 -0.52527,-0.69521 -0.14677,-0.30126 -0.14677,-0.61797 0,-0.35532 0.16222,-0.62568 0.16221,-0.27809 0.46347,-0.42485 0.30898,-0.15449 0.71066,-0.15449 0.54072,0 0.8806,0.30125 0.33988,0.29354 0.33988,0.80336 0,0.27808 -0.10815,0.52527 -0.10814,0.23946 -0.36305,0.48664 -0.25491,0.23946 -0.71066,0.50982 l 0.0155,-0.16221 1.44449,1.62215 h -0.13904 q 0.10814,-0.18539 0.18539,-0.42485 0.085,-0.23946 0.13904,-0.51754 0.0618,-0.28581 0.085,-0.60252 0.0155,-0.13132 0.085,-0.20084 0.0695,-0.0695 0.20084,-0.0695 0.13131,0 0.20084,0.0773 0.0695,0.0772 0.0541,0.22401 -0.0309,0.38623 -0.10815,0.73383 -0.0772,0.34761 -0.20083,0.64886 -0.1236,0.29354 -0.27809,0.54072 l -0.008,-0.18539 0.76473,0.84198 q 0.10042,0.10042 0.0927,0.20084 0,0.0927 -0.0772,0.15449 -0.0695,0.0618 -0.19312,0.0618 -0.10814,0 -0.17766,-0.0464 -0.0695,-0.0386 -0.16222,-0.12359 l -0.58706,-0.66432 h 0.16221 q -0.32443,0.40168 -0.78018,0.62569 -0.45575,0.22401 -0.98874,0.22401 z m 0.0309,-0.51754 q 0.4403,0 0.78018,-0.18539 0.3476,-0.18539 0.60251,-0.54072 l -0.008,0.19312 -1.63761,-1.7921 0.24719,0.0232 -0.23946,0.1545 q -0.33216,0.21628 -0.533,0.4094 -0.19311,0.18539 -0.27808,0.38622 -0.085,0.20084 -0.085,0.44803 0,0.42485 0.29353,0.66431 0.29354,0.23946 0.85743,0.23946 z m 0.20084,-4.58066 q -0.33216,0 -0.54072,0.19312 -0.20856,0.19311 -0.20856,0.50982 0,0.16994 0.0463,0.3167 0.0541,0.13904 0.18539,0.31671 0.13132,0.16994 0.36306,0.4403 l -0.16222,0.008 q 0.37078,-0.23946 0.58707,-0.41712 0.21628,-0.18539 0.30898,-0.35533 0.0927,-0.16994 0.0927,-0.36306 0,-0.30125 -0.18539,-0.47119 -0.18539,-0.17767 -0.48664,-0.17767 z m 7.92539,5.0982 q -0.80335,0 -1.37497,-0.33988 -0.57162,-0.33988 -0.8806,-0.96556 -0.30126,-0.62569 -0.30126,-1.49084 0,-0.64886 0.16994,-1.15868 0.17767,-0.51755 0.5021,-0.87288 0.33215,-0.36305 0.81108,-0.55617 0.47892,-0.20083 1.07371,-0.20083 0.47892,0 0.9115,0.13904 0.43257,0.13131 0.74928,0.39395 0.10042,0.0772 0.13131,0.17766 0.0386,0.0927 0.008,0.18539 -0.0232,0.085 -0.0927,0.14677 -0.0618,0.0541 -0.15449,0.0541 -0.0927,0 -0.20856,-0.0772 -0.27808,-0.22402 -0.61024,-0.33216 -0.33215,-0.10814 -0.71838,-0.10814 -0.61024,0 -1.03509,0.26263 -0.42485,0.25491 -0.64114,0.74928 -0.21629,0.49437 -0.21629,1.19731 0,0.70293 0.21629,1.20503 0.21629,0.49437 0.64114,0.757 0.42485,0.25491 1.03509,0.25491 0.3785,0 0.71838,-0.10814 0.33988,-0.11587 0.62569,-0.33988 0.11587,-0.0772 0.20856,-0.0695 0.0927,0 0.15449,0.0541 0.0618,0.0541 0.085,0.13904 0.0309,0.085 0,0.17767 -0.0232,0.0927 -0.11587,0.16221 -0.32443,0.27809 -0.76473,0.42485 -0.43257,0.13904 -0.92694,0.13904 z m 4.96372,0 q -0.75701,0 -1.3209,-0.33988 -0.55617,-0.3476 -0.86515,-0.97329 -0.30126,-0.62569 -0.30126,-1.48311 0,-0.64886 0.16994,-1.15868 0.17767,-0.51755 0.5021,-0.87288 0.32443,-0.36305 0.78018,-0.55617 0.46347,-0.20083 1.03509,-0.20083 0.77245,0 1.32862,0.33988 0.56389,0.33988 0.86515,0.96556 0.30898,0.61797 0.30898,1.47539 0,0.64887 -0.17766,1.16641 -0.17767,0.51754 -0.5021,0.8806 -0.32443,0.36305 -0.7879,0.56389 -0.45575,0.19311 -1.03509,0.19311 z m 0,-0.56389 q 0.58706,0 0.98874,-0.26263 0.4094,-0.26264 0.62569,-0.76473 0.21629,-0.5021 0.21629,-1.20503 0,-1.05827 -0.47893,-1.63761 -0.47119,-0.58706 -1.35179,-0.58706 -0.57162,0 -0.98102,0.26263 -0.40168,0.26264 -0.61796,0.76473 -0.21629,0.49437 -0.21629,1.19731 0,1.05054 0.47892,1.64533 0.47892,0.58706 1.33635,0.58706 z m 3.93952,0.54845 q -0.14676,0 -0.22401,-0.0772 -0.0772,-0.085 -0.0772,-0.23946 v -4.91281 q 0,-0.1545 0.0772,-0.23947 0.0772,-0.085 0.20084,-0.085 0.12359,0 0.17766,0.0464 0.0618,0.0386 0.13904,0.14677 l 3.36791,4.48796 h -0.18539 v -4.37209 q 0,-0.14677 0.0772,-0.22402 0.0772,-0.085 0.22402,-0.085 0.13904,0 0.20856,0.085 0.0772,0.0772 0.0772,0.22402 v 4.93598 q 0,0.14677 -0.0695,0.23174 -0.0618,0.0772 -0.18539,0.0772 -0.11586,0 -0.18538,-0.0464 -0.0695,-0.0464 -0.14677,-0.14677 l -3.36018,-4.48796 h 0.17766 v 4.36437 q 0,0.15449 -0.0772,0.23946 -0.0773,0.0772 -0.21629,0.0772 z m 5.75479,0 q -0.16222,0 -0.25491,-0.085 -0.085,-0.0927 -0.085,-0.26264 v -4.80467 q 0,-0.16994 0.085,-0.25491 0.0927,-0.0927 0.26263,-0.0927 h 2.80401 q 0.13132,0 0.20084,0.0695 0.0695,0.0695 0.0695,0.19311 0,0.13132 -0.0695,0.20084 -0.0695,0.0695 -0.20084,0.0695 h -2.5182 v 1.90024 h 2.35599 q 0.13132,0 0.20084,0.0695 0.0772,0.0695 0.0772,0.19311 0,0.13132 -0.0772,0.20084 -0.0695,0.0695 -0.20084,0.0695 h -2.35599 v 2.18605 q 0,0.34761 -0.29353,0.34761 z m 4.24078,-0.0541 q -0.16994,0 -0.26264,-0.085 -0.085,-0.0927 -0.085,-0.26263 v -4.7506 q 0,-0.16994 0.085,-0.25491 0.0927,-0.0927 0.26264,-0.0927 h 2.87353 q 0.13132,0 0.20084,0.0695 0.0695,0.0695 0.0695,0.19311 0,0.13132 -0.0695,0.20084 -0.0695,0.0695 -0.20084,0.0695 h -2.60317 v 1.88479 h 2.44095 q 0.13132,0 0.20084,0.0695 0.0695,0.0618 0.0695,0.19311 0,0.13132 -0.0695,0.20084 -0.0695,0.0695 -0.20084,0.0695 h -2.44095 v 1.96204 h 2.60317 q 0.13132,0 0.20084,0.0695 0.0695,0.0695 0.0695,0.19311 0,0.13132 -0.0695,0.20084 -0.0695,0.0695 -0.20084,0.0695 z m 4.47252,0.0541 q -0.15449,0 -0.23946,-0.085 -0.0773,-0.0927 -0.0773,-0.24719 v -4.88964 q 0,-0.16222 0.0773,-0.24719 0.085,-0.085 0.23946,-0.085 0.15449,0 0.23173,0.085 0.085,0.085 0.085,0.24719 v 4.88964 q 0,0.15449 -0.0772,0.24719 -0.0772,0.085 -0.23946,0.085 z m 3.32155,0 q -0.14677,0 -0.23174,-0.085 -0.085,-0.0927 -0.085,-0.24719 v -4.61928 h -1.73802 q -0.13904,0 -0.21629,-0.0772 -0.0772,-0.0772 -0.0772,-0.20083 0,-0.13132 0.0772,-0.20084 0.0772,-0.0695 0.21629,-0.0695 h 4.11719 q 0.13904,0 0.21628,0.0695 0.0773,0.0695 0.0773,0.20084 0,0.13131 -0.0773,0.20856 -0.0772,0.0695 -0.21628,0.0695 h -1.73803 v 4.61928 q 0,0.15449 -0.085,0.24719 -0.0772,0.085 -0.23946,0.085 z m 2.29102,0 q -0.1236,0 -0.20084,-0.0541 -0.0695,-0.0618 -0.085,-0.15449 -0.008,-0.10042 0.0463,-0.22401 l 2.12426,-4.83557 q 0.0695,-0.15449 0.16221,-0.21628 0.10042,-0.0695 0.21629,-0.0695 0.11587,0 0.20856,0.0695 0.10042,0.0618 0.16222,0.21628 l 2.13197,4.83557 q 0.0618,0.12359 0.0463,0.22401 -0.008,0.10042 -0.0772,0.15449 -0.0695,0.0541 -0.19311,0.0541 -0.13904,0 -0.22401,-0.0695 -0.085,-0.0772 -0.13904,-0.21628 l -0.57162,-1.3209 0.30898,0.16221 h -3.32155 l 0.3167,-0.16221 -0.56389,1.3209 q -0.0695,0.14676 -0.14677,0.21628 -0.0772,0.0695 -0.20083,0.0695 z m 2.25556,-4.75833 -1.24365,2.92761 -0.18539,-0.14677 h 2.85809 l -0.16994,0.14677 -1.24366,-2.92761 z m 3.80821,4.75833 q -0.15449,0 -0.23946,-0.085 -0.0772,-0.0927 -0.0772,-0.24719 v -4.84329 q 0,-0.16222 0.085,-0.23946 0.085,-0.085 0.23946,-0.085 h 1.83072 q 0.87287,0 1.34407,0.4094 0.4712,0.4094 0.4712,1.1664 0,0.47893 -0.21629,0.83426 -0.20856,0.3476 -0.61797,0.53299 -0.4094,0.17766 -0.98101,0.17766 l 0.0772,-0.10041 h 0.15449 q 0.30126,0 0.52527,0.15449 0.22401,0.15449 0.4094,0.49437 l 0.74156,1.38269 q 0.0618,0.10815 0.0541,0.21629 0,0.10042 -0.0695,0.16994 -0.0695,0.0618 -0.20084,0.0618 -0.13131,0 -0.21628,-0.0618 -0.085,-0.0618 -0.14677,-0.17767 l -0.84198,-1.56035 q -0.17766,-0.33216 -0.4094,-0.4403 -0.23173,-0.11587 -0.61024,-0.11587 h -0.98874 v 2.02383 q 0,0.15449 -0.0772,0.24719 -0.0772,0.085 -0.23946,0.085 z m 0.31671,-2.85809 h 1.42904 q 0.63341,0 0.95785,-0.26263 0.32443,-0.27036 0.32443,-0.80336 0,-0.51754 -0.32443,-0.78018 -0.32444,-0.27035 -0.95785,-0.27035 h -1.42904 z m 4.85102,2.85809 q -0.15449,0 -0.23946,-0.085 -0.0772,-0.0927 -0.0772,-0.24719 v -4.88964 q 0,-0.16222 0.0772,-0.24719 0.085,-0.085 0.23946,-0.085 0.15449,0 0.23173,0.085 0.085,0.085 0.085,0.24719 v 4.88964 q 0,0.15449 -0.0772,0.24719 -0.0773,0.085 -0.23946,0.085 z m 1.55264,0 q -0.1236,0 -0.20084,-0.0541 -0.0695,-0.0618 -0.085,-0.15449 -0.008,-0.10042 0.0463,-0.22401 l 2.12425,-4.83557 q 0.0695,-0.15449 0.16221,-0.21628 0.10042,-0.0695 0.21629,-0.0695 0.11587,0 0.20856,0.0695 0.10042,0.0618 0.16222,0.21628 l 2.13197,4.83557 q 0.0618,0.12359 0.0463,0.22401 -0.008,0.10042 -0.0772,0.15449 -0.0695,0.0541 -0.19312,0.0541 -0.13904,0 -0.22401,-0.0695 -0.085,-0.0772 -0.13904,-0.21628 l -0.57162,-1.3209 0.30898,0.16221 h -3.32155 l 0.3167,-0.16221 -0.56389,1.3209 q -0.0695,0.14676 -0.14676,0.21628 -0.0772,0.0695 -0.20084,0.0695 z m 2.25557,-4.75833 -1.24366,2.92761 -0.18539,-0.14677 h 2.85809 l -0.16994,0.14677 -1.24365,-2.92761 z"
         id="text260"
         style="font-size:7.72455px;font-family:Nunito;-inkscape-font-specification:Nunito;fill:#553388;stroke-width:1.5;stroke-linecap:round;stroke-linejoin:round"
         aria-label="PADARIA &amp; CONFEITARIA" /></g></g></svg>
